<svg width="80" height="80" viewBox="0 0 80 80" fill="none" xmlns="http://www.w3.org/2000/svg">
    <path fill-rule="evenodd" clip-rule="evenodd"
        d="M12.6676 11C9.53803 11 7.00098 13.5371 7.00098 16.6667V50.3333C7.00098 53.4629 9.53803 56 12.6676 56H40.0003C40.5526 56 41.0003 56.4477 41.0003 57V70C41.0003 70.5523 40.5526 71 40.0003 71H26.667C26.1147 71 25.667 70.5523 25.667 70C25.667 69.4477 26.1147 69 26.667 69H39.0003V58H12.6676C8.43346 58 5.00098 54.5675 5.00098 50.3333V16.6667C5.00098 12.4325 8.43346 9 12.6676 9H40.0003C40.5526 9 41.0003 9.44772 41.0003 10C41.0003 10.5523 40.5526 11 40.0003 11H12.6676Z"
        fill="white" />
    <path fill-rule="evenodd" clip-rule="evenodd"
        d="M45 16C45 12.134 48.134 9 52 9H68C71.866 9 75 12.134 75 16V64C75 67.866 71.866 71 68 71H52C48.134 71 45 67.866 45 64V16ZM52 11C49.2386 11 47 13.2386 47 16V64C47 66.7614 49.2386 69 52 69H68C70.7614 69 73 66.7614 73 64V16C73 13.2386 70.7614 11 68 11H52Z"
        fill="white" />
    <path fill-rule="evenodd" clip-rule="evenodd"
        d="M60 20C57.7909 20 56 21.7909 56 24C56 26.2091 57.7909 28 60 28C62.2091 28 64 26.2091 64 24C64 21.7909 62.2091 20 60 20ZM54 24C54 20.6863 56.6863 18 60 18C63.3137 18 66 20.6863 66 24C66 27.3137 63.3137 30 60 30C56.6863 30 54 27.3137 54 24Z"
        fill="white" />
    <path fill-rule="evenodd" clip-rule="evenodd"
        d="M53 57C53 56.4477 53.4477 56 54 56H66C66.5523 56 67 56.4477 67 57C67 57.5523 66.5523 58 66 58H54C53.4477 58 53 57.5523 53 57Z"
        fill="white" />
    <path fill-rule="evenodd" clip-rule="evenodd"
        d="M53 63C53 62.4477 53.4477 62 54 62H66C66.5523 62 67 62.4477 67 63C67 63.5523 66.5523 64 66 64H54C53.4477 64 53 63.5523 53 63Z"
        fill="white" />
</svg>