<svg width="80" height="80" viewBox="0 0 80 80" fill="none" xmlns="http://www.w3.org/2000/svg">
    <path fill-rule="evenodd" clip-rule="evenodd"
        d="M13.3337 11C10.204 11 7.66699 13.5371 7.66699 16.6667V50C7.66699 53.1296 10.204 55.6667 13.3337 55.6667H66.667C69.7966 55.6667 72.3337 53.1296 72.3337 50V16.6667C72.3337 13.5371 69.7966 11 66.667 11H13.3337ZM41.0003 57.6667H66.667C70.9012 57.6667 74.3337 54.2342 74.3337 50V16.6667C74.3337 12.4325 70.9012 9 66.667 9H13.3337C9.09948 9 5.66699 12.4325 5.66699 16.6667V50C5.66699 54.2342 9.09948 57.6667 13.3337 57.6667H39.0003V69H26.667C26.1147 69 25.667 69.4477 25.667 70C25.667 70.5523 26.1147 71 26.667 71H53.3337C53.8859 71 54.3337 70.5523 54.3337 70C54.3337 69.4477 53.8859 69 53.3337 69H41.0003V57.6667Z"
        fill="#161616" />
</svg>