<svg width="80" height="80" viewBox="0 0 80 80" fill="none" xmlns="http://www.w3.org/2000/svg">
    <path fill-rule="evenodd" clip-rule="evenodd"
        d="M13.3337 11C10.204 11 7.66699 13.5371 7.66699 16.6667V51C7.66699 54.1296 10.204 56.6667 13.3337 56.6667H66.667C69.7966 56.6667 72.3337 54.1296 72.3337 51V16.6667C72.3337 13.5371 69.7966 11 66.667 11H13.3337ZM5.66699 16.6667C5.66699 12.4325 9.09948 9 13.3337 9H66.667C70.9012 9 74.3337 12.4325 74.3337 16.6667V51C74.3337 55.2342 70.9012 58.6667 66.667 58.6667H13.3337C9.09948 58.6667 5.66699 55.2342 5.66699 51V16.6667ZM5.66699 66.25C5.66699 63.9028 7.56978 62 9.91699 62H70.0837C72.4309 62 74.3337 63.9028 74.3337 66.25C74.3337 68.5972 72.4309 70.5 70.0837 70.5H9.91699C7.56977 70.5 5.66699 68.5972 5.66699 66.25ZM9.91699 64C8.67435 64 7.66699 65.0074 7.66699 66.25C7.66699 67.4926 8.67435 68.5 9.91699 68.5H70.0837C71.3263 68.5 72.3337 67.4926 72.3337 66.25C72.3337 65.0074 71.3263 64 70.0837 64H9.91699Z"
        fill="#161616" />
</svg>