<svg width="80" height="81" viewBox="0 0 80 81" fill="none" xmlns="http://www.w3.org/2000/svg">
    <path fill-rule="evenodd" clip-rule="evenodd"
        d="M13.6 11.5C10.3061 11.5 8 13.6418 8 15.8782V53.1218C8 55.3582 10.3061 57.5 13.6 57.5H18H62H66.4C69.6939 57.5 72 55.3582 72 53.1218V15.8782C72 13.6418 69.6939 11.5 66.4 11.5H13.6ZM63 59.5H66.4C70.3963 59.5 74 56.826 74 53.1218V15.8782C74 12.174 70.3963 9.5 66.4 9.5H13.6C9.60372 9.5 6 12.174 6 15.8782V53.1218C6 56.826 9.60372 59.5 13.6 59.5H17V69.5H12C11.4477 69.5 11 69.9477 11 70.5C11 71.0523 11.4477 71.5 12 71.5H18H62L68 71.5C68.5523 71.5 69 71.0523 69 70.5C69 69.9477 68.5523 69.5 68 69.5H63V59.5ZM61 59.5H19V69.5L61 69.5V59.5Z"
        fill="white" />
</svg>