<svg width="80" height="80" viewBox="0 0 80 80" fill="none" xmlns="http://www.w3.org/2000/svg">
    <path fill-rule="evenodd" clip-rule="evenodd"
        d="M8 16.7227C8 13.5447 10.5245 11 13.6 11H66.4C69.4755 11 72 13.5447 72 16.7227V39L8 39V16.7227ZM6 40V16.7227C6 12.475 9.38535 9 13.6 9H66.4C70.6146 9 74 12.475 74 16.7227V40V63.2773C74 67.525 70.6146 71 66.4 71H13.6C9.38535 71 6 67.525 6 63.2773V40ZM72 41V63.2773C72 66.4553 69.4755 69 66.4 69H13.6C10.5245 69 8 66.4553 8 63.2773V41L72 41ZM17 53C15.8954 53 15 53.8954 15 55C15 56.1046 15.8954 57 17 57C18.1046 57 19 56.1046 19 55C19 53.8954 18.1046 53 17 53ZM13 55C13 52.7909 14.7909 51 17 51C19.2091 51 21 52.7909 21 55C21 57.2091 19.2091 59 17 59C14.7909 59 13 57.2091 13 55ZM28 53C26.8954 53 26 53.8954 26 55C26 56.1046 26.8954 57 28 57C29.1046 57 30 56.1046 30 55C30 53.8954 29.1046 53 28 53ZM24 55C24 52.7909 25.7909 51 28 51C30.2091 51 32 52.7909 32 55C32 57.2091 30.2091 59 28 59C25.7909 59 24 57.2091 24 55ZM49 55C49 54.4477 49.4477 54 50 54H66C66.5523 54 67 54.4477 67 55C67 55.5523 66.5523 56 66 56H50C49.4477 56 49 55.5523 49 55ZM15 25C15 23.8954 15.8954 23 17 23C18.1046 23 19 23.8954 19 25C19 26.1046 18.1046 27 17 27C15.8954 27 15 26.1046 15 25ZM17 21C14.7909 21 13 22.7909 13 25C13 27.2091 14.7909 29 17 29C19.2091 29 21 27.2091 21 25C21 22.7909 19.2091 21 17 21ZM26 25C26 23.8954 26.8954 23 28 23C29.1046 23 30 23.8954 30 25C30 26.1046 29.1046 27 28 27C26.8954 27 26 26.1046 26 25ZM28 21C25.7909 21 24 22.7909 24 25C24 27.2091 25.7909 29 28 29C30.2091 29 32 27.2091 32 25C32 22.7909 30.2091 21 28 21ZM50 24C49.4477 24 49 24.4477 49 25C49 25.5523 49.4477 26 50 26H66C66.5523 26 67 25.5523 67 25C67 24.4477 66.5523 24 66 24H50Z"
        fill="#161616" />
</svg>