<svg width="80" height="80" viewBox="0 0 80 80" fill="none" xmlns="http://www.w3.org/2000/svg">
    <path fill-rule="evenodd" clip-rule="evenodd"
        d="M20.6007 6C17.4801 6 14.8805 8.39198 14.6214 11.5017L11.4547 49.5017C11.1632 52.9998 13.9238 56 17.434 56H31V72H22C21.4477 72 21 72.4477 21 73C21 73.5523 21.4477 74 22 74H58C58.5523 74 59 73.5523 59 73C59 72.4477 58.5523 72 58 72H49V56H62.566C66.0763 56 68.8368 52.9998 68.5453 49.5017L65.3786 11.5017C65.1195 8.39197 62.5199 6 59.3993 6H20.6007ZM47 56V72H33V56H47ZM16.6145 11.6678C16.7873 9.59465 18.5203 8 20.6007 8H59.3993C61.4797 8 63.2128 9.59465 63.3855 11.6678L65.7465 40H14.2535L16.6145 11.6678ZM14.0868 42L13.4478 49.6678C13.2535 51.9999 15.0938 54 17.434 54H62.566C64.9062 54 66.7465 51.9999 66.5522 49.6678L65.9132 42H14.0868ZM53 47C52.4477 47 52 47.4477 52 48C52 48.5523 52.4477 49 53 49H61C61.5523 49 62 48.5523 62 48C62 47.4477 61.5523 47 61 47H53Z"
        fill="white" />
</svg>