<svg width="80" height="80" viewBox="0 0 80 80" fill="none" xmlns="http://www.w3.org/2000/svg">
    <path fill-rule="evenodd" clip-rule="evenodd"
        d="M11 10C11 6.13401 14.134 3 18 3H62C65.866 3 69 6.13401 69 10V70C69 71.9587 68.1955 73.7295 66.899 75H74C74.5523 75 75 75.4477 75 76C75 76.5523 74.5523 77 74 77L62 77H18H6C5.44772 77 5 76.5523 5 76C5 75.4477 5.44772 75 6 75H13.101C11.8045 73.7295 11 71.9587 11 70V10ZM18 75H62C64.7614 75 67 72.7614 67 70V10C67 7.23858 64.7614 5 62 5H18C15.2386 5 13 7.23857 13 10V70C13 72.7614 15.2386 75 18 75ZM17 12C17 10.3431 18.3431 9 20 9H60C61.6569 9 63 10.3431 63 12V52C63 53.6569 61.6569 55 60 55H20C18.3431 55 17 53.6569 17 52V12ZM20 11C19.4477 11 19 11.4477 19 12V52C19 52.5523 19.4477 53 20 53H60C60.5523 53 61 52.5523 61 52V12C61 11.4477 60.5523 11 60 11H20ZM17 61C17 60.4477 17.4477 60 18 60L50 60C50.5523 60 51 60.4477 51 61C51 61.5523 50.5523 62 50 62L18 62C17.4477 62 17 61.5523 17 61ZM56 60C55.4477 60 55 60.4477 55 61C55 61.5523 55.4477 62 56 62L62 62C62.5523 62 63 61.5523 63 61C63 60.4477 62.5523 60 62 60L56 60Z"
        fill="white" />
</svg>