<svg width="16" height="16" viewBox="0 0 16 16" xmlns="http://www.w3.org/2000/svg">
    <path
        d="M7.92639 11.4935C7.83865 11.494 7.75168 11.4772 7.67045 11.444C7.58923 11.4109 7.51535 11.362 7.45306 11.3002L3.45306 7.3002C3.39057 7.23822 3.34098 7.16449 3.30713 7.08325C3.27329 7.00201 3.25586 6.91487 3.25586 6.82686C3.25586 6.73886 3.27329 6.65172 3.30713 6.57048C3.34098 6.48924 3.39057 6.4155 3.45306 6.35353C3.57797 6.22936 3.74693 6.15967 3.92306 6.15967C4.09918 6.15967 4.26815 6.22936 4.39306 6.35353L7.92639 9.88686L11.4531 6.35353C11.578 6.22936 11.7469 6.15967 11.9231 6.15967C12.0992 6.15967 12.2681 6.22936 12.3931 6.35353C12.4555 6.4155 12.5051 6.48924 12.539 6.57048C12.5728 6.65172 12.5903 6.73886 12.5903 6.82686C12.5903 6.91487 12.5728 7.00201 12.539 7.08325C12.5051 7.16449 12.4555 7.23822 12.3931 7.3002L8.39306 11.3002C8.26888 11.4234 8.10128 11.4928 7.92639 11.4935Z" />
</svg>