<svg width="38" height="38" viewBox="0 0 38 38" xmlns="http://www.w3.org/2000/svg">
    <path
        d="M22.494 19.0734C22.4945 19.1611 22.4777 19.2481 22.4445 19.3293C22.4114 19.4105 22.3625 19.4844 22.3007 19.5467L18.3007 23.5467C18.2387 23.6092 18.165 23.6588 18.0837 23.6926C18.0025 23.7265 17.9154 23.7439 17.8274 23.7439C17.7393 23.7439 17.6522 23.7265 17.571 23.6926C17.4897 23.6588 17.416 23.6092 17.354 23.5467C17.2299 23.4218 17.1602 23.2528 17.1602 23.0767C17.1602 22.9006 17.2299 22.7316 17.354 22.6067L20.8874 19.0734L17.354 15.5467C17.2299 15.4218 17.1602 15.2528 17.1602 15.0767C17.1602 14.9006 17.2299 14.7316 17.354 14.6067C17.416 14.5442 17.4897 14.4946 17.571 14.4608C17.6522 14.4269 17.7393 14.4095 17.8274 14.4095C17.9154 14.4095 18.0025 14.4269 18.0837 14.4608C18.165 14.4946 18.2387 14.5442 18.3007 14.6067L22.3007 18.6067C22.4238 18.7309 22.4933 18.8985 22.494 19.0734Z" />
</svg>