<svg width="30" height="28" viewBox="0 0 30 28" xmlns="http://www.w3.org/2000/svg">
    <path fill-rule="evenodd" clip-rule="evenodd"
        d="M4.74613 3.03984C4.55087 2.84458 4.23429 2.84458 4.03902 3.03984C3.84376 3.23511 3.84376 3.55169 4.03902 3.74695L14.2921 14L4.0391 24.253C3.84384 24.4483 3.84384 24.7649 4.0391 24.9602C4.23436 25.1554 4.55094 25.1554 4.74621 24.9602L14.9992 14.7071L25.2522 24.9602C25.4475 25.1554 25.7641 25.1554 25.9593 24.9602C26.1546 24.7649 26.1546 24.4483 25.9593 24.2531L15.3581 13.6518C15.3563 13.65 15.3546 13.6482 15.3528 13.6464C15.351 13.6447 15.3493 13.6429 15.3475 13.6412L4.74613 3.03984ZM17.2974 10.9948C17.1021 11.1901 17.1021 11.5066 17.2974 11.7019C17.4926 11.8972 17.8092 11.8972 18.0045 11.7019L25.9594 3.74695C26.1547 3.55169 26.1547 3.23511 25.9594 3.03985C25.7642 2.84458 25.4476 2.84458 25.2523 3.03985L17.2974 10.9948Z" />
</svg>