<svg width="18" height="18" viewBox="0 0 18 18" xmlns="http://www.w3.org/2000/svg">
    <path fill-rule="evenodd" clip-rule="evenodd"
        d="M1.57613 1.57564C1.81044 1.34132 2.19034 1.34132 2.42465 1.57564L16.4247 15.5756C16.659 15.81 16.659 16.1899 16.4247 16.4242C16.1903 16.6585 15.8104 16.6585 15.5761 16.4242L9.00039 9.84843L2.42465 16.4242C2.19034 16.6585 1.81044 16.6585 1.57613 16.4242C1.34181 16.1899 1.34181 15.81 1.57613 15.5756L8.15186 8.9999L1.57613 2.42417C1.34181 2.18985 1.34181 1.80995 1.57613 1.57564ZM16.4247 1.57564C16.659 1.80995 16.659 2.18985 16.4247 2.42417L11.1747 7.67417C10.9403 7.90848 10.5604 7.90848 10.3261 7.67417C10.0918 7.43985 10.0918 7.05995 10.3261 6.82564L15.5761 1.57564C15.8104 1.34132 16.1903 1.34132 16.4247 1.57564Z" />
</svg>