<svg width="16" height="16" viewBox="0 0 16 16" xmlns="http://www.w3.org/2000/svg">
    <path fill-rule="evenodd" clip-rule="evenodd"
        d="M2.375 4C2.375 2.55025 3.55025 1.375 5 1.375H11C12.4497 1.375 13.625 2.55025 13.625 4V12C13.625 13.4497 12.4497 14.625 11 14.625H5C3.55025 14.625 2.375 13.4497 2.375 12V4ZM5 2.625C4.24061 2.625 3.625 3.24061 3.625 4V12C3.625 12.7594 4.24061 13.375 5 13.375H11C11.7594 13.375 12.375 12.7594 12.375 12V4C12.375 3.24061 11.7594 2.625 11 2.625H5Z" />
    <path fill-rule="evenodd" clip-rule="evenodd"
        d="M5.375 11C5.375 10.6548 5.65482 10.375 6 10.375H10C10.3452 10.375 10.625 10.6548 10.625 11C10.625 11.3452 10.3452 11.625 10 11.625H6C5.65482 11.625 5.375 11.3452 5.375 11Z" />
    <path d="M9 6C9 6.55228 8.55228 7 8 7C7.44772 7 7 6.55228 7 6C7 5.44772 7.44772 5 8 5C8.55228 5 9 5.44772 9 6Z" />
</svg>