<svg width="16" height="16" viewBox="0 0 16 16" xmlns="http://www.w3.org/2000/svg">

    <path fill-rule="evenodd" clip-rule="evenodd"
        d="M7.375 2C7.375 1.10254 8.10254 0.375 9 0.375H14C14.8975 0.375 15.625 1.10254 15.625 2V14C15.625 14.8975 14.8975 15.625 14 15.625H9C8.10254 15.625 7.375 14.8975 7.375 14V2ZM9 1.625C8.79289 1.625 8.625 1.79289 8.625 2V14C8.625 14.2071 8.79289 14.375 9 14.375H14C14.2071 14.375 14.375 14.2071 14.375 14V2C14.375 1.79289 14.2071 1.625 14 1.625H9Z" />
    <path fill-rule="evenodd" clip-rule="evenodd"
        d="M9.875 12C9.875 11.6548 10.1548 11.375 10.5 11.375H12.5C12.8452 11.375 13.125 11.6548 13.125 12C13.125 12.3452 12.8452 12.625 12.5 12.625H10.5C10.1548 12.625 9.875 12.3452 9.875 12Z" />
    <path fill-rule="evenodd" clip-rule="evenodd"
        d="M6 1.625L2 1.625C1.79289 1.625 1.625 1.79289 1.625 2L1.625 10C1.625 10.2071 1.79289 10.375 2 10.375L5.9 10.375C6.30041 10.375 6.625 10.6996 6.625 11.1L6.625 14.9C6.625 15.3004 6.30041 15.625 5.9 15.625L3 15.625C2.65482 15.625 2.375 15.3452 2.375 15C2.375 14.6548 2.65482 14.375 3 14.375L5.375 14.375L5.375 11.625L2 11.625C1.10254 11.625 0.375 10.8975 0.375 10L0.375 2C0.375 1.10254 1.10254 0.375001 2 0.375001L6 0.375C6.34518 0.375 6.625 0.654822 6.625 1C6.625 1.34518 6.34518 1.625 6 1.625Z" />
    <path
        d="M12.25 3.75C12.25 4.16421 11.9142 4.5 11.5 4.5C11.0858 4.5 10.75 4.16421 10.75 3.75C10.75 3.33579 11.0858 3 11.5 3C11.9142 3 12.25 3.33579 12.25 3.75Z" />

</svg>