<svg width="16" height="16" viewBox="0 0 16 16" xmlns="http://www.w3.org/2000/svg">

    <path fill-rule="evenodd" clip-rule="evenodd"
        d="M8 1.625C4.47918 1.625 1.625 4.47918 1.625 8C1.625 11.5208 4.47918 14.375 8 14.375C11.5208 14.375 14.375 11.5208 14.375 8C14.375 4.47918 11.5208 1.625 8 1.625ZM0.375 8C0.375 3.78883 3.78883 0.375 8 0.375C12.2112 0.375 15.625 3.78883 15.625 8C15.625 12.2112 12.2112 15.625 8 15.625C3.78883 15.625 0.375 12.2112 0.375 8Z" />
    <path fill-rule="evenodd" clip-rule="evenodd"
        d="M7.375 6C7.375 5.65482 7.65482 5.375 8 5.375C9.44975 5.375 10.625 6.55025 10.625 8C10.625 8.34518 10.3452 8.625 10 8.625C9.65482 8.625 9.375 8.34518 9.375 8C9.375 7.24061 8.75939 6.625 8 6.625C7.65482 6.625 7.375 6.34518 7.375 6ZM6 7.375C6.34518 7.375 6.625 7.65482 6.625 8C6.625 8.75939 7.24061 9.375 8 9.375C8.34518 9.375 8.625 9.65482 8.625 10C8.625 10.3452 8.34518 10.625 8 10.625C6.55025 10.625 5.375 9.44975 5.375 8C5.375 7.65482 5.65482 7.375 6 7.375Z" />

</svg>