<svg width="16" height="16" viewBox="0 0 16 16" xmlns="http://www.w3.org/2000/svg">

    <path fill-rule="evenodd" clip-rule="evenodd"
        d="M3.4921 3.49218C1.46347 5.52081 1.08712 8.57791 2.36627 10.9877C2.52811 11.2926 2.41215 11.6709 2.10726 11.8328C1.80238 11.9946 1.42402 11.8787 1.26218 11.5738C-0.267242 8.69251 0.180362 5.03615 2.60822 2.60829C5.58597 -0.369456 10.4138 -0.369456 13.3916 2.60829C15.8195 5.03615 16.2671 8.69251 14.7376 11.5738C14.5758 11.8787 14.1974 11.9946 13.8926 11.8328C13.5877 11.6709 13.4717 11.2926 13.6335 10.9877C14.9127 8.57791 14.5363 5.52081 12.5077 3.49218C10.0181 1.00258 5.98169 1.00258 3.4921 3.49218ZM7.99935 7.37488C8.34452 7.37488 8.62435 7.6547 8.62435 7.99988L8.62435 13.6995L10.1089 12.5119C10.3785 12.2962 10.7718 12.3399 10.9874 12.6095C11.203 12.879 11.1593 13.2723 10.8898 13.4879L7.99937 15.8003L7.61308 15.4913C7.61049 15.4892 7.60792 15.4872 7.60536 15.4851L5.10893 13.4879C4.8394 13.2723 4.7957 12.879 5.01133 12.6095C5.22696 12.3399 5.62026 12.2962 5.8898 12.5119L7.37435 13.6995L7.37435 7.99988C7.37435 7.6547 7.65417 7.37488 7.99935 7.37488Z" />

</svg>