<svg width="16" height="16" viewBox="0 0 16 16" xmlns="http://www.w3.org/2000/svg">
    <path fill-rule="evenodd" clip-rule="evenodd"
        d="M1.95331 5.00442C1.67425 5.24006 1.625 5.41014 1.625 5.5C1.625 5.58986 1.67425 5.75994 1.95331 5.99558C2.22948 6.22877 2.66616 6.46693 3.26046 6.67918C4.44363 7.10174 6.11925 7.375 8 7.375C9.88075 7.375 11.5564 7.10174 12.7395 6.67918C13.3338 6.46693 13.7705 6.22877 14.0467 5.99558C14.3257 5.75994 14.375 5.58986 14.375 5.5C14.375 5.41014 14.3257 5.24006 14.0467 5.00442C13.7705 4.77123 13.3338 4.53307 12.7395 4.32082C11.5564 3.89826 9.88075 3.625 8 3.625C6.11925 3.625 4.44363 3.89826 3.26046 4.32082C2.66616 4.53307 2.22948 4.77123 1.95331 5.00442ZM14.375 12L14.375 7.29216C14.1476 7.43121 13.8957 7.55854 13.625 7.6745L13.625 11.5C13.625 12.0101 13.2831 12.3706 12.9687 12.5937C12.638 12.8282 12.2 13.0138 11.7151 13.1593C10.7373 13.4526 9.42401 13.625 8 13.625C6.57599 13.625 5.26265 13.4526 4.28487 13.1593C3.79996 13.0138 3.36201 12.8282 3.03134 12.5937C2.71691 12.3706 2.375 12.0101 2.375 11.5L2.375 7.6745C1.89625 7.46943 1.47623 7.22875 1.14687 6.95065C0.7175 6.58809 0.375 6.1005 0.375 5.5C0.375 4.8995 0.7175 4.41191 1.14687 4.04935C1.57915 3.68435 2.16759 3.3838 2.84004 3.14364C4.19038 2.66138 6.01476 2.375 8 2.375C9.98524 2.375 11.8096 2.66138 13.16 3.14364C13.8324 3.3838 14.4209 3.68435 14.8531 4.04935C15.2825 4.41191 15.625 4.8995 15.625 5.5L15.625 12C15.625 12.3452 15.3452 12.625 15 12.625C14.6548 12.625 14.375 12.3452 14.375 12ZM3.625 8.10032L3.625 11.4602C3.64002 11.4797 3.67593 11.5183 3.75451 11.5741C3.92986 11.6985 4.22415 11.836 4.64406 11.962C5.47592 12.2116 6.66259 12.375 8 12.375C9.33741 12.375 10.5241 12.2116 11.3559 11.962C11.7759 11.836 12.0701 11.6985 12.2455 11.5741C12.3241 11.5183 12.36 11.4797 12.375 11.4602L12.375 8.10032C11.1382 8.43363 9.62285 8.625 8 8.625C6.37715 8.625 4.86179 8.43363 3.625 8.10032ZM12.3846 11.4454C12.3847 11.4454 12.3842 11.4465 12.383 11.4487C12.3839 11.4465 12.3845 11.4454 12.3846 11.4454ZM3.61705 11.4487C3.61577 11.4465 3.61532 11.4454 3.61541 11.4454C3.6155 11.4454 3.61614 11.4465 3.61705 11.4487Z" />
</svg>