<svg width="16" height="16" viewBox="0 0 16 16" xmlns="http://www.w3.org/2000/svg">

    <path fill-rule="evenodd" clip-rule="evenodd"
        d="M6.625 1.625V6.625L1.625 6.625L1.625 9.375H6.625L6.625 14.375H9.375V9.375L14.375 9.375V6.625H9.375V1.625L6.625 1.625ZM6.5 0.375L9.5 0.375C10.1213 0.375 10.625 0.87868 10.625 1.5V5.375H14.5C15.1213 5.375 15.625 5.87868 15.625 6.5V9.5C15.625 10.1213 15.1213 10.625 14.5 10.625L10.625 10.625V14.5C10.625 15.1213 10.1213 15.625 9.5 15.625H6.5C5.87868 15.625 5.375 15.1213 5.375 14.5L5.375 10.625H1.5C0.87868 10.625 0.375 10.1213 0.375 9.5L0.375 6.5C0.375 5.87868 0.87868 5.375 1.5 5.375L5.375 5.375V1.5C5.375 0.87868 5.87868 0.375 6.5 0.375Z" />

</svg>