<svg width="16" height="16" viewBox="0 0 16 16" xmlns="http://www.w3.org/2000/svg">
    <path fill-rule="evenodd" clip-rule="evenodd"
        d="M8.03926 2.94685C10.0015 1.31161 12.9179 1.57674 14.5531 3.53902C16.1884 5.5013 15.9232 8.41766 13.961 10.0529L8.52827 14.5801C8.22232 14.8351 7.77791 14.8351 7.47196 14.5801L2.03926 10.0529C0.0769823 8.41766 -0.188141 5.5013 1.44709 3.53902C3.08233 1.57674 5.99869 1.31161 7.96097 2.94685L8.00012 2.97947L8.03926 2.94685ZM13.5929 4.33925C12.3996 2.90731 10.2714 2.71385 8.83949 3.90713L8.00012 4.60661L7.16074 3.90713C5.7288 2.71385 3.60065 2.90731 2.40737 4.33925C1.21409 5.77118 1.40756 7.89934 2.83949 9.09262L8.00012 13.3931L13.1607 9.09262C14.5927 7.89934 14.7861 5.77118 13.5929 4.33925Z" />
</svg>