<svg width="16" height="16" viewBox="0 0 16 16" xmlns="http://www.w3.org/2000/svg">

    <path fill-rule="evenodd" clip-rule="evenodd"
        d="M1.875 2.5C1.875 1.60254 2.60254 0.875 3.5 0.875H12.5C13.3975 0.875 14.125 1.60254 14.125 2.5V13.5C14.125 14.3975 13.3975 15.125 12.5 15.125H3.5C2.60254 15.125 1.875 14.3975 1.875 13.5V2.5ZM3.5 2.125C3.29289 2.125 3.125 2.29289 3.125 2.5V13.5C3.125 13.7071 3.29289 13.875 3.5 13.875H12.5C12.7071 13.875 12.875 13.7071 12.875 13.5V2.5C12.875 2.29289 12.7071 2.125 12.5 2.125H3.5Z" />
    <path fill-rule="evenodd" clip-rule="evenodd"
        d="M5.375 6.5C5.375 6.15482 5.65482 5.875 6 5.875H10C10.3452 5.875 10.625 6.15482 10.625 6.5C10.625 6.84518 10.3452 7.125 10 7.125H6C5.65482 7.125 5.375 6.84518 5.375 6.5Z" />
    <path fill-rule="evenodd" clip-rule="evenodd"
        d="M5.375 9.5C5.375 9.15482 5.65482 8.875 6 8.875H10C10.3452 8.875 10.625 9.15482 10.625 9.5C10.625 9.84518 10.3452 10.125 10 10.125H6C5.65482 10.125 5.375 9.84518 5.375 9.5Z" />

</svg>