<svg width="16" height="16" viewBox="0 0 16 16" xmlns="http://www.w3.org/2000/svg">

    <path fill-rule="evenodd" clip-rule="evenodd"
        d="M6.25377 0.375L9.74607 0.375C10.414 0.375 10.9531 0.917289 10.9531 1.58333V2.25808C11.136 2.35268 11.3137 2.45577 11.4858 2.56683L12.0677 2.23011C12.6459 1.8956 13.3845 2.09467 13.7174 2.67261L15.4636 5.7037C15.796 6.28084 15.5993 7.01945 15.022 7.3535L14.4382 7.69129C14.443 7.79363 14.4454 7.89655 14.4454 8C14.4454 8.10354 14.443 8.20655 14.4382 8.30897L15.022 8.64678C15.5993 8.98082 15.796 9.71944 15.4636 10.2966L13.7174 13.3277C13.3845 13.9056 12.6459 14.1047 12.0677 13.7702L11.4856 13.4333C11.3136 13.5443 11.1359 13.6474 10.9531 13.7419V14.4167C10.9531 15.0827 10.414 15.625 9.74607 15.625H6.25377C5.58584 15.625 5.04672 15.0827 5.04672 14.4167V13.7419C4.86398 13.6474 4.68637 13.5444 4.51441 13.4334L3.93242 13.7702C3.3543 14.1047 2.61569 13.9056 2.28275 13.3277L0.536597 10.2966C0.204119 9.71944 0.400874 8.98083 0.978189 8.64678L1.56169 8.30915C1.55686 8.20667 1.55442 8.1036 1.55442 8C1.55442 7.89649 1.55685 7.79351 1.56167 7.69111L0.978189 7.3535C0.400873 7.01945 0.204118 6.28083 0.536596 5.7037L2.28275 2.67261C2.61569 2.09467 3.3543 1.89559 3.93242 2.23011L4.51418 2.56673C4.68622 2.45571 4.8639 2.35265 5.04672 2.25808V1.58333C5.04672 0.917288 5.58584 0.375 6.25377 0.375ZM6.29672 1.625V3.06067L5.92242 3.22457C5.5642 3.38143 5.22682 3.57774 4.91578 3.80814L4.58598 4.05244L3.34432 3.33399L1.64009 6.29231L2.88168 7.01073L2.83662 7.41632C2.81536 7.60772 2.80442 7.80246 2.80442 8C2.80442 8.19762 2.81537 8.39243 2.83665 8.58391L2.88173 8.98952L1.64009 9.70796L3.34432 12.6663L4.58617 11.9477L4.91596 12.192C5.22695 12.4223 5.56427 12.6186 5.92242 12.7754L6.29672 12.9393V14.375H9.70312V12.9393L10.0774 12.7754C10.4356 12.6186 10.773 12.4223 11.084 12.1919L11.4138 11.9476L12.6558 12.6663L14.3601 9.70796L13.1182 8.98935L13.1632 8.58375C13.1845 8.39233 13.1954 8.19756 13.1954 8C13.1954 7.80252 13.1845 7.60783 13.1632 7.41648L13.1182 7.0109L14.3601 6.29232L12.6558 3.33399L11.414 4.05255L11.0842 3.80823C10.7731 3.57779 10.4357 3.38145 10.0774 3.22457L9.70312 3.06067V1.625L6.29672 1.625ZM3.30639 12.6882C3.30636 12.6882 3.30642 12.6882 3.30639 12.6882ZM1.60422 9.72871C1.60429 9.72867 1.60415 9.72875 1.60422 9.72871ZM8.00424 6.29167C7.06489 6.29167 6.30104 7.05522 6.30104 8C6.30104 8.94478 7.06489 9.70833 8.00424 9.70833C8.9436 9.70833 9.70744 8.94478 9.70744 8C9.70744 7.05522 8.9436 6.29167 8.00424 6.29167ZM5.05104 8C5.05104 6.36746 6.37194 5.04167 8.00424 5.04167C9.63655 5.04167 10.9574 6.36746 10.9574 8C10.9574 9.63254 9.63655 10.9583 8.00424 10.9583C6.37194 10.9583 5.05104 9.63254 5.05104 8Z" />

</svg>