<svg width="16" height="16" viewBox="0 0 16 16" xmlns="http://www.w3.org/2000/svg">

    <path fill-rule="evenodd" clip-rule="evenodd"
        d="M2.67607 1.4137C2.70841 0.818719 3.34152 0.453187 3.87297 0.722675L14.153 5.93549C14.7982 6.26264 14.7399 7.2026 14.0593 7.44756L10.4429 8.74908L12.7082 12.6726C12.936 13.0672 12.8008 13.5718 12.4062 13.7996L9.73886 15.3396C9.34427 15.5674 8.8397 15.4322 8.61189 15.0376L6.34657 11.114L3.40671 13.598C2.85422 14.0648 2.01121 13.6453 2.05046 12.923L2.67607 1.4137ZM3.88886 2.13226L3.35207 12.0077L5.92805 9.83113C6.32073 9.49934 6.91794 9.60359 7.17498 10.0488L9.48192 14.0445L11.4132 12.9295L9.10624 8.93384C8.84917 8.48858 9.05757 7.91919 9.54133 7.74508L12.7093 6.60493L3.88886 2.13226Z" />

</svg>