<svg width="16" height="16" viewBox="0 0 16 16" xmlns="http://www.w3.org/2000/svg">

    <path fill-rule="evenodd" clip-rule="evenodd"
        d="M5.05806 5.05806C5.30214 4.81398 5.69786 4.81398 5.94194 5.05806L14.4419 13.5581C14.686 13.8021 14.686 14.1979 14.4419 14.4419C14.1979 14.686 13.8021 14.686 13.5581 14.4419L5.05806 5.94194C4.81398 5.69786 4.81398 5.30214 5.05806 5.05806Z" />
    <path fill-rule="evenodd" clip-rule="evenodd"
        d="M4.93795 0.49875C5.27137 0.588089 5.46923 0.9308 5.37989 1.26422L5.12107 2.23014C5.03173 2.56356 4.68902 2.76142 4.35561 2.67208C4.02219 2.58274 3.82433 2.24003 3.91366 1.90662L4.17248 0.940692C4.26182 0.607276 4.60453 0.409412 4.93795 0.49875ZM7.50122 3.06198C7.59056 3.39539 7.3927 3.73811 7.05928 3.82744L6.09335 4.08626C5.75994 4.1756 5.41723 3.97774 5.32789 3.64432C5.23855 3.31091 5.43641 2.96819 5.76983 2.87886L6.73576 2.62004C7.06917 2.5307 7.41188 2.72856 7.50122 3.06198ZM1.43608 1.43692C1.68016 1.19284 2.07588 1.19284 2.31996 1.43692L3.02707 2.14403C3.27115 2.3881 3.27115 2.78383 3.02707 3.02791C2.78299 3.27199 2.38726 3.27199 2.14318 3.02791L1.43608 2.3208C1.192 2.07672 1.192 1.681 1.43608 1.43692ZM2.67164 4.35612C2.76098 4.68954 2.56312 5.03225 2.2297 5.12159L1.26377 5.38041C0.930357 5.46975 0.587646 5.27188 0.498308 4.93847C0.408969 4.60505 0.606833 4.26234 0.940249 4.173L1.90618 3.91418C2.23959 3.82484 2.5823 4.02271 2.67164 4.35612ZM3.64392 5.32836C3.97734 5.4177 4.1752 5.76041 4.08586 6.09383L3.82705 7.05975C3.73771 7.39317 3.395 7.59103 3.06158 7.5017C2.72816 7.41236 2.5303 7.06965 2.61964 6.73623L2.87846 5.7703C2.9678 5.43689 3.31051 5.23902 3.64392 5.32836Z" />

</svg>