<svg width="16" height="16" viewBox="0 0 16 16" xmlns="http://www.w3.org/2000/svg">
    <path
        d="M7.92639 11.4933C7.83865 11.4938 7.75168 11.477 7.67045 11.4438C7.58923 11.4106 7.51535 11.3617 7.45306 11.3L3.45306 7.29995C3.39057 7.23798 3.34098 7.16424 3.30713 7.083C3.27329 7.00176 3.25586 6.91463 3.25586 6.82662C3.25586 6.73861 3.27329 6.65147 3.30713 6.57023C3.34098 6.48899 3.39057 6.41526 3.45306 6.35329C3.57797 6.22912 3.74693 6.15942 3.92306 6.15942C4.09918 6.15942 4.26815 6.22912 4.39306 6.35329L7.92639 9.88662L11.4531 6.35329C11.578 6.22912 11.7469 6.15942 11.9231 6.15942C12.0992 6.15942 12.2681 6.22912 12.3931 6.35329C12.4555 6.41526 12.5051 6.48899 12.539 6.57023C12.5728 6.65147 12.5903 6.73861 12.5903 6.82662C12.5903 6.91463 12.5728 7.00176 12.539 7.083C12.5051 7.16424 12.4555 7.23798 12.3931 7.29995L8.39306 11.3C8.26888 11.4231 8.10128 11.4925 7.92639 11.4933Z" />
</svg>