<svg width="16" height="16" viewBox="0 0 16 16" xmlns="http://www.w3.org/2000/svg">
    <path fill-rule="evenodd" clip-rule="evenodd"
        d="M1.375 4C1.375 2.55025 2.55025 1.375 4 1.375H12C13.4497 1.375 14.625 2.55025 14.625 4V9C14.625 10.4497 13.4497 11.625 12 11.625H4C2.55025 11.625 1.375 10.4497 1.375 9V4ZM4 2.625C3.24061 2.625 2.625 3.24061 2.625 4V9C2.625 9.75939 3.24061 10.375 4 10.375H12C12.7594 10.375 13.375 9.75939 13.375 9V4C13.375 3.24061 12.7594 2.625 12 2.625H4Z" />
    <path fill-rule="evenodd" clip-rule="evenodd"
        d="M1.375 13C1.375 12.6548 1.65482 12.375 2 12.375H14C14.3452 12.375 14.625 12.6548 14.625 13C14.625 13.3452 14.3452 13.625 14 13.625H2C1.65482 13.625 1.375 13.3452 1.375 13Z" />
</svg>