<svg width="56" height="56" viewBox="0 0 56 56" xmlns="http://www.w3.org/2000/svg">
    <path fill-rule="evenodd" clip-rule="evenodd"
        d="M19.6464 19.6464C19.8417 19.4512 20.1583 19.4512 20.3536 19.6464L28.3526 27.6455C28.3529 27.6458 28.3532 27.6461 28.3536 27.6464C28.3539 27.6468 28.3542 27.6471 28.3545 27.6474L36.3536 35.6464C36.5488 35.8417 36.5488 36.1583 36.3536 36.3536C36.1583 36.5488 35.8417 36.5488 35.6464 36.3536L28 28.7071L20.3536 36.3536C20.1583 36.5488 19.8417 36.5488 19.6464 36.3536C19.4512 36.1583 19.4512 35.8417 19.6464 35.6464L27.2929 28L19.6464 20.3536C19.4512 20.1583 19.4512 19.8417 19.6464 19.6464ZM36.3536 19.6464C36.5488 19.8417 36.5488 20.1583 36.3536 20.3536L30.3536 26.3536C30.1583 26.5488 29.8417 26.5488 29.6464 26.3536C29.4512 26.1583 29.4512 25.8417 29.6464 25.6464L35.6464 19.6464C35.8417 19.4512 36.1583 19.4512 36.3536 19.6464Z" />
</svg>