<svg width="16" height="16" viewBox="0 0 16 16" xmlns="http://www.w3.org/2000/svg">

    <path fill-rule="evenodd" clip-rule="evenodd"
        d="M0.374999 3C0.374999 2.10254 1.10254 1.375 2 1.375L14 1.375C14.8975 1.375 15.625 2.10254 15.625 3L15.625 11C15.625 11.8975 14.8975 12.625 14 12.625L8.625 12.625L8.625 13.875L10 13.875C10.3452 13.875 10.625 14.1548 10.625 14.5C10.625 14.8452 10.3452 15.125 10 15.125L8 15.125L6 15.125C5.65482 15.125 5.375 14.8452 5.375 14.5C5.375 14.1548 5.65482 13.875 6 13.875L7.375 13.875L7.375 12.625L2 12.625C1.10254 12.625 0.375 11.8975 0.375 11L0.374999 3ZM7.99945 11.375C7.99963 11.375 7.99982 11.375 8 11.375C8.00018 11.375 8.00037 11.375 8.00055 11.375L14 11.375C14.2071 11.375 14.375 11.2071 14.375 11L14.375 3C14.375 2.79289 14.2071 2.625 14 2.625L2 2.625C1.79289 2.625 1.625 2.79289 1.625 3L1.625 11C1.625 11.2071 1.79289 11.375 2 11.375L7.99945 11.375Z" />

</svg>