<svg width="16" height="16" viewBox="0 0 16 16" xmlns="http://www.w3.org/2000/svg">

    <path fill-rule="evenodd" clip-rule="evenodd"
        d="M4 1.37506C2.55025 1.37506 1.375 2.55031 1.375 4.00006L1.375 10.0001C1.375 11.4498 2.55025 12.6251 4 12.6251L6.27379 12.6251L4.5999 14.02C4.33473 14.2409 4.2989 14.635 4.51988 14.9002C4.74085 15.1654 5.13496 15.2012 5.40013 14.9802L7.75995 13.0137C7.89901 12.8978 8.10102 12.8978 8.24008 13.0137L10.5999 14.9802C10.8651 15.2012 11.2592 15.1654 11.4802 14.9002C11.7011 14.635 11.6653 14.2409 11.4001 14.02L9.72624 12.6251L12 12.6251C13.4497 12.6251 14.625 11.4498 14.625 10.0001L14.625 4.00006C14.625 2.55031 13.4497 1.37506 12 1.37506L4 1.37506ZM2.625 4.00006C2.625 3.24066 3.24061 2.62506 4 2.62506L12 2.62506C12.7594 2.62506 13.375 3.24066 13.375 4.00006L13.375 10.0001C13.375 10.7594 12.7594 11.3751 12 11.3751L4 11.3751C3.24061 11.3751 2.625 10.7594 2.625 10.0001L2.625 4.00006Z" />

</svg>