<svg width="16" height="16" viewBox="0 0 16 16" xmlns="http://www.w3.org/2000/svg">

    <path fill-rule="evenodd" clip-rule="evenodd"
        d="M2.06534 3.4852C2.31074 2.25821 3.38808 1.375 4.63937 1.375L11.3602 1.375C12.6114 1.375 13.6888 2.25821 13.9342 3.48519L15.1342 9.48519C15.459 11.1095 14.2166 12.625 12.5602 12.625L8.625 12.625L8.625 13.875L11 13.875C11.3452 13.875 11.625 14.1548 11.625 14.5C11.625 14.8452 11.3452 15.125 11 15.125L8 15.125L5 15.125C4.65482 15.125 4.375 14.8452 4.375 14.5C4.375 14.1548 4.65482 13.875 5 13.875L7.375 13.875L7.375 12.625L3.43937 12.625C1.78287 12.625 0.540478 11.1095 0.865344 9.48519L2.06534 3.4852ZM4.63937 2.625C3.98393 2.625 3.41961 3.08763 3.29107 3.73034L2.09107 9.73034C1.9209 10.5812 2.57168 11.375 3.43937 11.375L12.5602 11.375C13.4278 11.375 14.0786 10.5812 13.9085 9.73034L12.7085 3.73034C12.5799 3.08763 12.0156 2.625 11.3602 2.625L4.63937 2.625Z" />

</svg>