<svg width="16" height="16" viewBox="0 0 16 16" xmlns="http://www.w3.org/2000/svg">

    <path fill-rule="evenodd" clip-rule="evenodd"
        d="M0.375 15C0.375 14.6548 0.654822 14.375 1 14.375L2.375 14.375L2.375 8.625L2.375 2C2.375 1.10254 3.10254 0.374999 4 0.374999L12 0.374999C12.8975 0.374999 13.625 1.10254 13.625 2L13.625 8.625L13.625 14.375L15 14.375C15.3452 14.375 15.625 14.6548 15.625 15C15.625 15.3452 15.3452 15.625 15 15.625L13.625 15.625L2.375 15.625L1 15.625C0.654822 15.625 0.375 15.3452 0.375 15ZM12.375 14.375L3.625 14.375L3.625 8.625L12.375 8.625L12.375 14.375ZM12.375 2L12.375 7.375L3.625 7.375L3.625 2C3.625 1.79289 3.79289 1.625 4 1.625L12 1.625C12.2071 1.625 12.375 1.79289 12.375 2ZM5 9.625C4.65482 9.625 4.375 9.90482 4.375 10.25C4.375 10.5952 4.65482 10.875 5 10.875L8 10.875C8.34518 10.875 8.625 10.5952 8.625 10.25C8.625 9.90482 8.34518 9.625 8 9.625L5 9.625ZM10.75 11C11.1642 11 11.5 10.6642 11.5 10.25C11.5 9.83579 11.1642 9.5 10.75 9.5C10.3358 9.5 10 9.83579 10 10.25C10 10.6642 10.3358 11 10.75 11Z" />

</svg>