<svg width="16" height="16" viewBox="0 0 16 16" xmlns="http://www.w3.org/2000/svg">
    <path fill-rule="evenodd" clip-rule="evenodd"
        d="M9.67911 1.22784C10.5959 0.506424 11.9517 0.957441 12.2536 2.0843L14.3156 9.77976C14.6176 10.9066 13.6689 11.9751 12.5143 11.8087L6.60433 10.9572L5.4001 11.2799L6.1442 14.057C6.23354 14.3904 6.03568 14.7331 5.70226 14.8224C5.36884 14.9118 5.02613 14.7139 4.9368 14.3805L4.19269 11.6034L3.83047 11.7005C2.96359 11.9328 2.07254 11.4183 1.84026 10.5515L1.0638 7.65368C0.83152 6.78679 1.34597 5.89575 2.21285 5.66347L4.98671 4.92021L9.67911 1.22784ZM4.83045 6.25618L2.53637 6.87087C2.33632 6.92448 2.2176 7.1301 2.27121 7.33015L3.04767 10.2279C3.10127 10.428 3.30689 10.5467 3.50694 10.4931L5.80102 9.8784L4.83045 6.25618ZM7.06352 9.7605L12.6925 10.5715C12.959 10.6099 13.1779 10.3633 13.1082 10.1033L11.0462 2.40783C10.9765 2.14778 10.6637 2.0437 10.4521 2.21018L5.98276 5.72703L7.06352 9.7605Z" />
</svg>