<svg width="18" height="18" viewBox="0 0 18 18" xmlns="http://www.w3.org/2000/svg">
    <path fill-rule="evenodd" clip-rule="evenodd"
        d="M16.98 11.5716C18.0367 12.0245 18.3019 13.4014 17.489 14.2143L14.5836 17.1196C14.2813 17.422 13.8473 17.6137 13.3724 17.565C12.1065 17.4353 8.50339 16.7517 4.92158 13.1699C1.33978 9.58806 0.656143 5.98494 0.526406 4.71906C0.477732 4.24414 0.669474 3.81017 0.971835 3.50781L3.87716 0.602483C4.69007 -0.210429 6.06696 0.054737 6.51982 1.11141L7.52592 3.45897C7.94874 4.44556 7.72831 5.59017 6.96932 6.34916L5.80547 7.51301C5.56139 7.75709 5.16566 7.75709 4.92158 7.51301C4.6775 7.26894 4.6775 6.87321 4.92158 6.62913L6.08543 5.46528C6.483 5.06771 6.59846 4.46815 6.37699 3.95137L5.37089 1.60381C5.26638 1.35996 4.94864 1.29877 4.76105 1.48637L1.85572 4.39169C1.78301 4.46441 1.76449 4.53887 1.76989 4.59162C1.87893 5.65553 2.47958 8.9601 5.80547 12.286C9.13135 15.6119 12.4359 16.2125 13.4998 16.3216C13.5526 16.327 13.627 16.3084 13.6998 16.2357L16.6051 13.3304C16.7927 13.1428 16.7315 12.8251 16.4876 12.7206L14.1401 11.7145C13.6233 11.493 13.0237 11.6085 12.6262 12.006L11.4623 13.1699C11.2182 13.4139 10.8225 13.4139 10.5784 13.1699C10.3344 12.9258 10.3344 12.5301 10.5784 12.286L11.7423 11.1221C12.5013 10.3631 13.6459 10.1427 14.6325 10.5655L16.98 11.5716Z" />
</svg>