<svg width="16" height="16" viewBox="0 0 16 16" xmlns="http://www.w3.org/2000/svg">

    <path fill-rule="evenodd" clip-rule="evenodd"
        d="M8.69238 2.62773C8.26425 2.37799 7.73485 2.37799 7.30673 2.62773L3.30673 4.96107C2.87654 5.21201 2.63064 5.65808 2.66078 6.10805C3.05557 12.0012 6.52968 13.875 7.99955 13.875C9.46943 13.875 12.9435 12.0012 13.3383 6.10805C13.3685 5.65808 13.1226 5.21201 12.6924 4.96107L8.69238 2.62773ZM6.67689 1.54801C7.49422 1.07124 8.50489 1.07124 9.32221 1.54801L13.3222 3.88134C14.1209 4.34724 14.6505 5.22207 14.5855 6.1916C14.1595 12.5508 10.3024 15.125 7.99955 15.125C5.69667 15.125 1.83958 12.5508 1.41358 6.1916C1.34863 5.22207 1.87821 4.34724 2.67689 3.88134L6.67689 1.54801Z" />

</svg>