<svg width="16" height="16" viewBox="0 0 16 16" xmlns="http://www.w3.org/2000/svg">

    <path fill-rule="evenodd" clip-rule="evenodd"
        d="M3.30673 4.96104L7.30673 2.62771C7.73485 2.37797 8.26425 2.37797 8.69237 2.62771L12.6924 4.96104C13.1226 5.21199 13.3685 5.65806 13.3383 6.10802C12.9435 12.0012 9.46943 13.875 7.99955 13.875C6.52967 13.875 3.05556 12.0012 2.66078 6.10802C2.63064 5.65806 2.87654 5.21199 3.30673 4.96104ZM9.32221 1.54799C8.50489 1.07121 7.49422 1.07121 6.67689 1.54799L2.67689 3.88132C1.87821 4.34722 1.34863 5.22205 1.41358 6.19157C1.83958 12.5508 5.69667 15.125 7.99955 15.125C10.3024 15.125 14.1595 12.5508 14.5855 6.19157C14.6505 5.22205 14.1209 4.34722 13.3222 3.88132L9.32221 1.54799ZM7.375 11.5C7.375 11.8452 7.65482 12.125 8 12.125C8.30237 12.125 8.55459 11.9103 8.6125 11.625L9 11.625C9.34518 11.625 9.625 11.3452 9.625 11C9.625 10.6548 9.34518 10.375 9 10.375L8.625 10.375L8.625 9.03158C9.49358 8.76468 10.125 7.95607 10.125 6.99998C10.125 5.82637 9.1736 4.87498 8 4.87498C6.82639 4.87498 5.875 5.82637 5.875 6.99998C5.875 7.95607 6.50642 8.76468 7.375 9.03158L7.375 11L7.375 11.5ZM8 7.87498C8.48325 7.87498 8.875 7.48323 8.875 6.99998C8.875 6.51673 8.48325 6.12498 8 6.12498C7.51675 6.12498 7.125 6.51673 7.125 6.99998C7.125 7.48323 7.51675 7.87498 8 7.87498Z" />

</svg>