<svg width="16" height="16" viewBox="0 0 16 16" xmlns="http://www.w3.org/2000/svg">

    <path fill-rule="evenodd" clip-rule="evenodd"
        d="M10.3279 0.898964C10.6598 0.804137 11.0057 0.996319 11.1006 1.32822L11.971 4.37492H13.7672C14.7993 4.37492 15.5699 5.32467 15.3573 6.33468L13.9455 13.0407C13.6898 14.2554 12.6181 15.1249 11.3768 15.1249H4.62239C3.38106 15.1249 2.30942 14.2554 2.0537 13.0407L0.641904 6.33468C0.429269 5.32467 1.19989 4.37492 2.23205 4.37492H4.02816L4.89865 1.32822C4.99348 0.996319 5.3394 0.804137 5.6713 0.898965C6.0032 0.993792 6.19538 1.33972 6.10055 1.67162L5.32818 4.37492H10.671L9.89865 1.67162C9.80382 1.33972 9.996 0.993792 10.3279 0.898964ZM11.4852 5.62492H4.51402C4.50464 5.62513 4.49523 5.62513 4.4858 5.62492H2.23205C1.99386 5.62492 1.81602 5.84409 1.86509 6.07717L3.27688 12.7832C3.41084 13.4195 3.97217 13.8749 4.62239 13.8749H11.3768C12.027 13.8749 12.5884 13.4195 12.7223 12.7832L14.1341 6.07717C14.1832 5.84409 14.0053 5.62492 13.7672 5.62492H11.5134C11.504 5.62513 11.4946 5.62513 11.4852 5.62492Z" />

</svg>