<svg width="16" height="16" viewBox="0 0 16 16" xmlns="http://www.w3.org/2000/svg">

    <path fill-rule="evenodd" clip-rule="evenodd"
        d="M10.3289 0.898964C10.6608 0.804137 11.0067 0.996319 11.1015 1.32822L11.972 4.37492L13.7681 4.37492C14.8003 4.37492 15.5709 5.32467 15.3583 6.33468L13.9465 13.0407C13.6908 14.2554 12.6191 15.1249 11.3778 15.1249L8.01027 15.1249C8.00685 15.125 8.00343 15.125 8 15.125C7.99657 15.125 7.99315 15.125 7.98973 15.1249L4.62337 15.1249C3.38204 15.1249 2.3104 14.2554 2.05467 13.0407L0.642881 6.33468C0.430246 5.32467 1.20087 4.37492 2.23302 4.37492L4.02914 4.37492L4.89962 1.32822C4.99445 0.99632 5.34038 0.804137 5.67228 0.898965C6.00417 0.993792 6.19636 1.33972 6.10153 1.67162L5.32916 4.37492L10.672 4.37492L9.89963 1.67162C9.8048 1.33972 9.99698 0.993792 10.3289 0.898964ZM8.625 13.8749L11.3778 13.8749C12.028 13.8749 12.5893 13.4195 12.7233 12.7832L13.2829 10.125L8.625 10.125L8.625 13.8749ZM7.375 10.125L7.375 13.8749L4.62337 13.8749C3.97315 13.8749 3.41181 13.4195 3.27786 12.7832L2.71824 10.125L7.375 10.125ZM8.625 8.875L13.5461 8.875L14.1351 6.07717C14.1842 5.84409 14.0063 5.62492 13.7681 5.62492L11.5144 5.62492C11.5049 5.62513 11.4955 5.62513 11.4862 5.62492L8.625 5.62492L8.625 8.875ZM7.375 5.62492L7.375 8.875L2.45508 8.875L1.86607 6.07717C1.817 5.84409 1.99483 5.62492 2.23302 5.62492L4.48677 5.62492C4.49621 5.62513 4.50562 5.62513 4.515 5.62492L7.375 5.62492Z" />

</svg>