<svg width="38" height="38" viewBox="0 0 38 38" xmlns="http://www.w3.org/2000/svg">
    <path fill-rule="evenodd" clip-rule="evenodd"
        d="M11.8887 15.4442C11.8887 13.4805 13.4805 11.8887 15.4442 11.8887H22.5553C24.519 11.8887 26.1109 13.4805 26.1109 15.4442V22.5553C26.1109 24.519 24.519 26.1109 22.5553 26.1109H15.4442C13.4805 26.1109 11.8887 24.519 11.8887 22.5553V15.4442ZM20.6475 16.3331H15.4442V21.6664H16.8925V19.9313H19.6675L20.9337 21.6664H22.5553L21.1591 19.9233C21.5928 19.8594 21.905 19.7075 22.0957 19.4676C22.2865 19.2277 22.3819 18.8439 22.3819 18.3321V17.9323C22.3819 17.6285 22.3472 17.3886 22.2865 17.2047C22.2258 17.0208 22.1217 16.8609 21.9743 16.7169C21.8182 16.581 21.6448 16.485 21.4367 16.4211C21.2285 16.3651 20.9683 16.3331 20.6475 16.3331ZM20.4134 18.7559H16.8925V17.5085H20.4134C20.6128 17.5085 20.7515 17.5405 20.8209 17.5965C20.8903 17.6525 20.9337 17.7564 20.9337 17.9083V18.3561C20.9337 18.516 20.8903 18.62 20.8209 18.676C20.7515 18.7319 20.6128 18.7559 20.4134 18.7559ZM24.3331 15.4442C24.3331 15.9351 23.9352 16.3331 23.4441 16.3331C22.9533 16.3331 22.5553 15.9351 22.5553 15.4442C22.5553 14.9533 22.9533 14.5553 23.4441 14.5553C23.9352 14.5553 24.3331 14.9533 24.3331 15.4442Z" />
</svg>