<svg width="18" height="18" viewBox="0 0 18 18" xmlns="http://www.w3.org/2000/svg">
    <path fill-rule="evenodd" clip-rule="evenodd"
        d="M2.53846 8.25C2.53846 5.0956 5.0956 2.53846 8.25 2.53846C11.4044 2.53846 13.9615 5.0956 13.9615 8.25C13.9615 11.4044 11.4044 13.9615 8.25 13.9615C5.0956 13.9615 2.53846 11.4044 2.53846 8.25ZM8.25 1.5C4.52208 1.5 1.5 4.52208 1.5 8.25C1.5 11.9779 4.52208 15 8.25 15C11.9779 15 15 11.9779 15 8.25C15 4.52208 11.9779 1.5 8.25 1.5ZM14.8352 14.0398C14.6156 13.8201 14.2594 13.8201 14.0398 14.0398C13.8201 14.2594 13.8201 14.6156 14.0398 14.8352L15.5398 16.3352C15.7594 16.5549 16.1156 16.5549 16.3352 16.3352C16.5549 16.1156 16.5549 15.7594 16.3352 15.5398L14.8352 14.0398Z" />
</svg>