<svg width="16" height="16" viewBox="0 0 16 16" xmlns="http://www.w3.org/2000/svg">

    <path fill-rule="evenodd" clip-rule="evenodd"
        d="M8 1.625C5.03147 1.625 2.625 4.03147 2.625 7C2.625 8.54022 3.51262 10.0591 4.66992 11.368C5.81418 12.6621 7.14116 13.6597 7.84636 14.1483C7.94201 14.2146 8.058 14.2146 8.15364 14.1483C8.85884 13.6597 10.1858 12.6621 11.3301 11.368C12.4874 10.0591 13.375 8.54022 13.375 7C13.375 4.03147 10.9685 1.625 8 1.625ZM1.375 7C1.375 3.34111 4.34111 0.375 8 0.375C11.6589 0.375 14.625 3.34111 14.625 7C14.625 8.99996 13.4921 10.8099 12.2665 12.196C11.0279 13.5968 9.60968 14.6601 8.86558 15.1758C8.34169 15.5388 7.65831 15.5388 7.13442 15.1758C6.39032 14.6601 4.97211 13.5968 3.73349 12.196C2.50793 10.8099 1.375 8.99996 1.375 7Z" />
    <path d="M9 6C9 6.55228 8.55228 7 8 7C7.44772 7 7 6.55228 7 6C7 5.44772 7.44772 5 8 5C8.55228 5 9 5.44772 9 6Z" />

</svg>