<svg width="16" height="16" viewBox="0 0 16 16" xmlns="http://www.w3.org/2000/svg">
    <path fill-rule="evenodd" clip-rule="evenodd"
        d="M0.374999 3C0.374999 2.10254 1.10254 1.375 2 1.375L14 1.375C14.8975 1.375 15.625 2.10254 15.625 3L15.625 13C15.625 13.8975 14.8975 14.625 14 14.625L2 14.625C1.10254 14.625 0.375 13.8975 0.375 13L0.374999 3ZM2 2.625C1.79289 2.625 1.625 2.79289 1.625 3L1.625 7.375L14.375 7.375L14.375 3C14.375 2.79289 14.2071 2.625 14 2.625L2 2.625ZM14.375 8.625L1.625 8.625L1.625 13C1.625 13.2071 1.79289 13.375 2 13.375L14 13.375C14.2071 13.375 14.375 13.2071 14.375 13L14.375 8.625ZM4 12C4.55228 12 5 11.5523 5 11C5 10.4477 4.55228 10 4 10C3.44772 10 3 10.4477 3 11C3 11.5523 3.44772 12 4 12ZM4 6C4.55228 6 5 5.55228 5 5C5 4.44771 4.55228 4 4 4C3.44772 4 3 4.44771 3 5C3 5.55228 3.44772 6 4 6ZM7.375 11C7.375 10.6548 7.65482 10.375 8 10.375L12 10.375C12.3452 10.375 12.625 10.6548 12.625 11C12.625 11.3452 12.3452 11.625 12 11.625L8 11.625C7.65482 11.625 7.375 11.3452 7.375 11ZM8 4.375C7.65482 4.375 7.375 4.65482 7.375 5C7.375 5.34518 7.65482 5.625 8 5.625L12 5.625C12.3452 5.625 12.625 5.34518 12.625 5C12.625 4.65482 12.3452 4.375 12 4.375L8 4.375Z" />
</svg>