<svg width="16" height="16" viewBox="0 0 16 16" xmlns="http://www.w3.org/2000/svg">
    <path fill-rule="evenodd" clip-rule="evenodd"
        d="M2.91012 5.02787C2.68435 4.80545 2.625 4.62746 2.625 4.5C2.625 4.37254 2.68435 4.19455 2.91012 3.97213C3.1381 3.74755 3.50005 3.51653 3.99774 3.30916C4.99039 2.89555 6.40504 2.625 8 2.625C9.59496 2.625 11.0096 2.89555 12.0023 3.30916C12.4999 3.51653 12.8619 3.74755 13.0899 3.97213C13.3157 4.19455 13.375 4.37254 13.375 4.5C13.375 4.62746 13.3157 4.80545 13.0899 5.02787C12.8619 5.25245 12.4999 5.48347 12.0023 5.69084C11.0096 6.10445 9.59496 6.375 8 6.375C6.40504 6.375 4.99039 6.10445 3.99774 5.69084C3.50005 5.48347 3.1381 5.25245 2.91012 5.02787ZM14.625 11.5L14.625 4.5C14.625 3.9371 14.3486 3.45742 13.9671 3.08164C13.5878 2.70803 13.0711 2.40035 12.483 2.15531C11.3041 1.66409 9.71875 1.375 8 1.375C6.28125 1.375 4.6959 1.66409 3.51697 2.15531C2.92888 2.40035 2.41215 2.70804 2.0329 3.08164C1.65144 3.45742 1.375 3.9371 1.375 4.5L1.375 11.5C1.375 12.0629 1.65144 12.5426 2.0329 12.9184C2.41215 13.292 2.92888 13.5996 3.51697 13.8447C4.6959 14.3359 6.28125 14.625 8 14.625C9.71875 14.625 11.3041 14.3359 12.483 13.8447C13.0711 13.5996 13.5878 13.292 13.9671 12.9184C14.3486 12.5426 14.625 12.0629 14.625 11.5ZM12.483 6.84469C12.8054 6.71035 13.1064 6.55719 13.375 6.38466L13.375 11.5C13.375 11.6275 13.3157 11.8055 13.0899 12.0279C12.8619 12.2525 12.4999 12.4835 12.0023 12.6908C11.0096 13.1044 9.59496 13.375 8 13.375C6.40504 13.375 4.99039 13.1044 3.99774 12.6908C3.50005 12.4835 3.1381 12.2525 2.91012 12.0279C2.68435 11.8055 2.625 11.6275 2.625 11.5L2.625 6.38466C2.89361 6.55719 3.19457 6.71035 3.51697 6.84469C4.6959 7.33591 6.28125 7.625 8 7.625C9.71875 7.625 11.3041 7.33591 12.483 6.84469ZM5 11C5.55229 11 6 10.5523 6 10C6 9.44772 5.55228 9 5 9C4.44772 9 4 9.44772 4 10C4 10.5523 4.44772 11 5 11Z" />
</svg>