<svg width="16" height="16" viewBox="0 0 16 16" xmlns="http://www.w3.org/2000/svg">
    <path
        d="M11.8797 7.33352H5.57304L8.39304 4.51352C8.47911 4.38393 8.51714 4.22833 8.50056 4.07365C8.48399 3.91897 8.41384 3.77496 8.30227 3.66656C8.1907 3.55815 8.04473 3.49218 7.88964 3.48005C7.73455 3.46793 7.5801 3.51043 7.45304 3.60019L3.49304 7.56019C3.38827 7.68269 3.33143 7.839 3.33304 8.00019C3.33321 8.08955 3.35135 8.17797 3.38637 8.26019C3.41887 8.33965 3.46641 8.41209 3.52637 8.47352L7.48637 12.4335C7.61191 12.5582 7.78182 12.6279 7.95873 12.6272C8.13564 12.6266 8.30506 12.5557 8.42971 12.4302C8.55436 12.3047 8.62404 12.1347 8.62341 11.9578C8.62279 11.7809 8.55191 11.6115 8.42637 11.4869L5.57304 8.66686H11.8797C12.0565 8.66686 12.2261 8.59662 12.3511 8.47159C12.4761 8.34657 12.5464 8.177 12.5464 8.00019C12.5464 7.82338 12.4761 7.65381 12.3511 7.52878C12.2261 7.40376 12.0565 7.33352 11.8797 7.33352Z" />
</svg>