<svg width="16" height="16" viewBox="0 0 16 16" xmlns="http://www.w3.org/2000/svg">
    <path
        d="M12.4997 8.28642C12.5336 8.20511 12.5511 8.11787 12.5511 8.02976C12.5511 7.94165 12.5336 7.85441 12.4997 7.77309C12.4626 7.69455 12.4131 7.62251 12.353 7.55976L8.39301 3.59976C8.26547 3.49054 8.10142 3.43347 7.93364 3.43995C7.76585 3.44643 7.6067 3.51599 7.48797 3.63472C7.36924 3.75345 7.29968 3.9126 7.2932 4.08039C7.28672 4.24817 7.34379 4.41222 7.45301 4.53976L10.273 7.33309H3.99967C3.82286 7.33309 3.65329 7.40333 3.52827 7.52835C3.40325 7.65338 3.33301 7.82295 3.33301 7.99976C3.33301 8.17657 3.40325 8.34614 3.52827 8.47116C3.65329 8.59619 3.82286 8.66642 3.99967 8.66642H10.3063L7.48634 11.4864C7.36081 11.6111 7.28993 11.7805 7.2893 11.9574C7.28868 12.1343 7.35836 12.3042 7.48301 12.4298C7.60766 12.5553 7.77707 12.6262 7.95398 12.6268C8.13089 12.6274 8.30081 12.5577 8.42634 12.4331L12.3863 8.47309C12.4324 8.41629 12.4705 8.3535 12.4997 8.28642Z" />
</svg>