<svg width="16" height="16" viewBox="0 0 16 16" xmlns="http://www.w3.org/2000/svg">
    <path fill-rule="evenodd" clip-rule="evenodd"
        d="M0.375 4.5C0.375 3.05025 1.55025 1.875 3 1.875H13C14.4497 1.875 15.625 3.05025 15.625 4.5V11.5C15.625 12.9497 14.4497 14.125 13 14.125H3C1.55025 14.125 0.375 12.9497 0.375 11.5V4.5ZM3 3.125C2.24061 3.125 1.625 3.74061 1.625 4.5V4.6373L7.81395 8.17384C7.92923 8.23972 8.07076 8.23972 8.18605 8.17384L14.375 4.6373V4.5C14.375 3.74061 13.7594 3.125 13 3.125H3ZM14.375 6.07699L8.80623 9.25914C8.30665 9.54462 7.69335 9.54462 7.19377 9.25915L1.625 6.07699V11.5C1.625 12.2594 2.24061 12.875 3 12.875H13C13.7594 12.875 14.375 12.2594 14.375 11.5V6.07699Z" />
</svg>