<svg width="16" height="16" viewBox="0 0 16 16" xmlns="http://www.w3.org/2000/svg">
    <path fill-rule="evenodd" clip-rule="evenodd"
        d="M7.99943 2.5C4.96186 2.5 2.49943 4.96243 2.49943 8C2.49943 8.76052 2.6535 9.48377 2.93167 10.1412C3.01685 10.3426 3.04097 10.5743 2.98121 10.8008L2.18652 13.8127L5.19866 13.0182C5.42514 12.9585 5.65687 12.9826 5.85819 13.0678C6.51565 13.3459 7.23891 13.5 7.99943 13.5C11.037 13.5 13.4994 11.0376 13.4994 8C13.4994 4.96243 11.037 2.5 7.99943 2.5ZM1.49943 8C1.49943 4.41015 4.40958 1.5 7.99943 1.5C11.5893 1.5 14.4994 4.41015 14.4994 8C14.4994 11.5899 11.5893 14.5 7.99943 14.5C7.10264 14.5 6.24705 14.3181 5.46853 13.9887C5.45933 13.9848 5.4541 13.9852 5.45324 13.9852L2.429 14.7829C1.69662 14.966 1.03322 14.3026 1.21631 13.5702L1.21789 13.5639L2.01418 10.5462C2.01426 10.5453 2.0146 10.5401 2.0107 10.5309C1.68132 9.75236 1.49943 8.89678 1.49943 8Z" />
</svg>