<svg width="38" height="38" viewBox="0 0 38 38" xmlns="http://www.w3.org/2000/svg">
    <path fill-rule="evenodd" clip-rule="evenodd"
        d="M12.8016 18.6503C16.38 17.0247 18.7622 15.9445 19.9584 15.4205C23.363 13.9339 24.0787 13.6772 24.5388 13.6665C24.641 13.6665 24.8659 13.6879 25.0193 13.8162C25.142 13.9232 25.1726 14.0622 25.1931 14.1692C25.2135 14.2761 25.234 14.5007 25.2135 14.6718C25.0295 16.7039 24.232 21.6342 23.8231 23.9015C23.6493 24.864 23.3119 25.1849 22.9847 25.217C22.269 25.2811 21.7271 24.725 21.0421 24.2544C19.9584 23.5165 19.3552 23.0566 18.3021 22.3294C17.0854 21.4952 17.8727 21.0353 18.5679 20.2866C18.752 20.0941 21.8907 17.0996 21.9521 16.8322C21.9623 16.8001 21.9623 16.6718 21.8907 16.6076C21.8192 16.5434 21.7169 16.5648 21.6351 16.5862C21.5227 16.6076 19.805 17.8054 16.4618 20.169C15.971 20.5219 15.5314 20.693 15.1327 20.6823C14.693 20.6717 13.8547 20.4257 13.2208 20.2118C12.454 19.9551 11.8405 19.8161 11.8917 19.3669C11.9223 19.1316 12.229 18.8963 12.8016 18.6503Z" />
</svg>