<svg width="16" height="16" viewBox="0 0 16 16" fill="none" xmlns="http://www.w3.org/2000/svg">
    <path fill-rule="evenodd" clip-rule="evenodd"
        d="M8 2.625C7.24061 2.625 6.625 3.24061 6.625 4C6.625 4.75939 7.24061 5.375 8 5.375C8.75939 5.375 9.375 4.75939 9.375 4C9.375 3.24061 8.75939 2.625 8 2.625ZM5.375 4C5.375 2.55025 6.55025 1.375 8 1.375C9.44975 1.375 10.625 2.55025 10.625 4C10.625 5.44975 9.44975 6.625 8 6.625C6.55025 6.625 5.375 5.44975 5.375 4Z"
        fill="#161616" />
    <path fill-rule="evenodd" clip-rule="evenodd"
        d="M4.03687 9.4377C3.01752 9.94737 2.625 10.5358 2.625 11C2.625 11.4642 3.01752 12.0526 4.03687 12.5623C5.01883 13.0533 6.41914 13.375 8 13.375C9.58086 13.375 10.9812 13.0533 11.9631 12.5623C12.9825 12.0526 13.375 11.4642 13.375 11C13.375 10.5358 12.9825 9.94737 11.9631 9.4377C10.9812 8.94672 9.58086 8.625 8 8.625C6.41914 8.625 5.01883 8.94672 4.03687 9.4377ZM3.47785 8.31966C4.66746 7.72486 6.26716 7.375 8 7.375C9.73284 7.375 11.3325 7.72486 12.5221 8.31966C13.6744 8.89578 14.625 9.80731 14.625 11C14.625 12.1927 13.6744 13.1042 12.5221 13.6803C11.3325 14.2751 9.73284 14.625 8 14.625C6.26716 14.625 4.66746 14.2751 3.47785 13.6803C2.32562 13.1042 1.375 12.1927 1.375 11C1.375 9.80731 2.32562 8.89578 3.47785 8.31966Z"
        fill="#161616" />
</svg>