<svg width="16" height="16" viewBox="0 0 16 16" xmlns="http://www.w3.org/2000/svg">
    <path fill-rule="evenodd" clip-rule="evenodd"
        d="M1.375 6C1.375 4.55025 2.55025 3.375 4 3.375L5.375 3.375L5.375 3C5.375 2.10254 6.10254 1.375 7 1.375L9 1.375C9.89746 1.375 10.625 2.10254 10.625 3L10.625 3.375L12 3.375C13.4497 3.375 14.625 4.55025 14.625 6L14.625 6.48098C14.6254 6.49388 14.6254 6.50683 14.625 6.5198L14.625 12C14.625 13.4497 13.4497 14.625 12 14.625L4 14.625C2.55025 14.625 1.375 13.4497 1.375 12L1.375 6ZM9.375 3.375L9.375 3C9.375 2.79289 9.20711 2.625 9 2.625L7 2.625C6.79289 2.625 6.625 2.79289 6.625 3L6.625 3.375L9.375 3.375ZM6 4.625L4 4.625C3.24061 4.625 2.625 5.24061 2.625 6L2.625 6.34284C2.66256 6.40708 2.71879 6.49693 2.796 6.60465C2.97038 6.84794 3.25024 7.18028 3.66202 7.51504C4.47669 8.17735 5.83842 8.875 8.00015 8.875C10.1619 8.875 11.5236 8.17735 12.3383 7.51504C12.7501 7.18028 13.0299 6.84794 13.2043 6.60465C13.2813 6.49722 13.3374 6.40756 13.375 6.34335L13.375 6C13.375 5.24061 12.7594 4.625 12 4.625L10 4.625L6 4.625ZM2.625 12L2.625 8.27216C2.70335 8.34283 2.78613 8.41393 2.8735 8.48496C3.9039 9.32265 5.54216 10.125 8.00015 10.125C10.4581 10.125 12.0964 9.32265 13.1268 8.48496C13.2141 8.41402 13.2967 8.34301 13.375 8.27244L13.375 12C13.375 12.7594 12.7594 13.375 12 13.375L4 13.375C3.24061 13.375 2.625 12.7594 2.625 12Z" />
</svg>