<svg width="38" height="38" viewBox="0 0 38 38" xmlns="http://www.w3.org/2000/svg">
    <path
        d="M19.6398 23.4357C14.7776 23.4357 12.0042 20.1023 11.8887 14.5557H14.3242C14.4042 18.6268 16.1998 20.3512 17.622 20.7068V14.5557H19.9153V18.0668C21.3198 17.9157 22.7953 16.3157 23.2931 14.5557H25.5864C25.3989 15.4685 25.025 16.3327 24.4881 17.0944C23.9513 17.8561 23.263 18.4988 22.4664 18.9823C23.3556 19.4242 24.141 20.0495 24.7707 20.8172C25.4005 21.5848 25.8603 22.4773 26.1198 23.4357H23.5953C23.3624 22.6032 22.8889 21.8581 22.2343 21.2936C21.5797 20.7291 20.773 20.3703 19.9153 20.2623V23.4357H19.6398V23.4357Z" />
</svg>