<svg width="84" height="64" viewBox="0 0 84 64" fill="none" xmlns="http://www.w3.org/2000/svg">
<g clip-path="url(#clip0_145_233)">
<path fill-rule="evenodd" clip-rule="evenodd" d="M7.3387 54.9338H4.84847V63.8474H2.78792V54.9338H0.362305V53.3373H7.3387V54.9338ZM22.5452 59.2058H19.3045V62.2581H23.1867V63.8474H17.2516V53.3373H23.1715V54.9338H19.3045V57.6191H22.5452V59.2058ZM36.6955 57.0551H36.7403L38.2465 53.3373H40.6274L37.993 58.5503L40.804 63.8474H38.321L36.7628 60.0508H36.7181L35.167 63.8474H32.7788L35.4802 58.5503L32.8384 53.3373H35.2119L36.6955 57.0551ZM58.1304 63.8474H56.0826V59.4669H52.6677V63.8474H50.6148V53.3373H52.6677V57.8778H56.0826V53.3373H58.1304V63.8474ZM76.1976 60.0655C76.1976 61.3023 75.847 62.2658 75.1437 62.9604C74.4403 63.6526 73.5033 63.9976 72.3327 64.0001C71.1622 63.9978 70.2277 63.6526 69.5293 62.9604C68.8307 62.2658 68.4805 61.3023 68.4805 60.0655V57.1338C68.4805 55.9019 68.8284 54.9362 69.5244 54.2365C70.2227 53.5369 71.1547 53.187 72.3253 53.187C73.4958 53.187 74.4329 53.5369 75.1389 54.2365C75.8445 54.9362 76.1976 55.9019 76.1976 57.1338V60.0655ZM74.1521 57.1142C74.1521 56.3479 73.9955 55.7714 73.6823 55.3796C73.3691 54.9905 72.9167 54.7957 72.3253 54.7957C71.729 54.7957 71.279 54.9905 70.9782 55.3771C70.6777 55.7641 70.526 56.343 70.526 57.1142V60.0655C70.526 60.8441 70.6777 61.4306 70.9807 61.8197C71.284 62.2091 71.7363 62.4036 72.3327 62.4036C72.9293 62.4036 73.3816 62.2091 73.6898 61.8197C73.9979 61.4306 74.1521 60.8441 74.1521 60.0655V57.1142Z" fill="#FB0F1D"/>
<path fill-rule="evenodd" clip-rule="evenodd" d="M0 1.56201H10.7383V4.12903L0 17.019V1.56201Z" fill="#FB0F1D"/>
<path fill-rule="evenodd" clip-rule="evenodd" d="M0 22.1533L10.7383 9.25244V42.777H0V22.1533Z" fill="#FB0F1D"/>
<path fill-rule="evenodd" clip-rule="evenodd" d="M46.586 26.3151L46.4163 26.7519L46.2353 27.1671L46.0316 27.5931L45.8167 27.9973L45.5903 28.3905L45.3414 28.7838L45.0812 29.1661L44.7982 29.5267L44.5154 29.8871L44.2098 30.2366L43.8929 30.5752L43.5648 30.892L43.2141 31.2088L42.8633 31.5037L42.5012 31.7988L42.1165 32.0718L41.7317 32.3339L41.3357 32.5743L40.9171 32.8037L40.4984 33.0221L40.0684 33.2296L39.6385 33.4154L39.1858 33.5793L38.7332 33.7322L38.2692 33.8742L37.8054 33.9943L37.33 34.0926L36.8434 34.1801L36.357 34.2456L35.859 34.2893L35.3611 34.3221L34.8519 34.333L34.2182 34.3221L33.5959 34.2674L32.9849 34.191L32.3739 34.0817L31.7742 33.9506L31.1971 33.7868L30.62 33.6011L30.0541 33.3826L29.511 33.1422L28.9792 32.8692L28.4587 32.5852L27.9609 32.2684L27.4743 31.9297L26.999 31.5694L26.5465 31.1979L26.1164 30.7937L25.7091 30.3787L25.3131 29.9417L24.951 29.4829L24.6002 29.0131L24.2833 28.5325L23.9779 28.0301L23.7062 27.5058L23.4573 26.9814L23.231 26.4352L23.0386 25.8781L22.8689 25.3102L22.7218 24.731L22.62 24.1412L22.5408 23.5514L22.4841 22.9396L22.4729 22.328L22.4841 21.7052L22.5408 21.1045L22.62 20.5037L22.7218 19.9029L22.8689 19.3239L23.0386 18.7559L23.231 18.1988L23.4573 17.6526L23.7062 17.1174L23.9779 16.593L24.2833 16.0905L24.6002 15.5989L24.951 15.1292L25.3131 14.6704L25.7091 14.2335L26.1164 13.8183L26.5465 13.4142L26.999 13.0428L27.4743 12.6824L27.9609 12.3438L28.4587 12.0269L28.9792 11.7429L29.511 11.4697L30.0541 11.2296L30.62 11.011L31.1971 10.8253L31.7742 10.6614L32.3739 10.5194L32.9849 10.4211L33.5959 10.3447L34.2182 10.29L34.8519 10.2791L35.3385 10.29L35.8138 10.3118L36.289 10.3555L36.7529 10.4211L37.217 10.4976L37.6808 10.596L38.1335 10.716L38.5747 10.8362L39.0048 10.9891L39.4461 11.1421L39.8647 11.3168L40.2721 11.5135L40.6794 11.7102L41.0868 11.9286L41.4714 12.158L41.8562 12.3983L42.2182 12.6605L42.5804 12.9336L42.9311 13.2068L43.2707 13.5017L43.5989 13.8074L43.9156 14.1243L44.2211 14.4519L44.5154 14.7906L44.7982 15.1292L45.0698 15.4897L45.33 15.8503L45.5677 16.2324L45.794 16.6148L46.0203 16.9972L46.2126 17.4013L46.405 17.8055H57.4602L57.2339 16.8661L56.9736 15.9375L56.6681 15.0199L56.3287 14.1243L55.944 13.2503L55.5252 12.3983L55.0726 11.5572L54.586 10.738L54.0543 9.95139L53.4998 9.17586L52.9113 8.43305L52.2891 7.7121L51.644 7.01298L50.9651 6.34663L50.2522 5.71304L49.5168 5.10133L48.7586 4.5114L47.9779 3.96524L47.1631 3.44094L46.3259 2.96031L45.4771 2.50148L44.5946 2.08633L43.7006 1.704L42.7727 1.35452L41.8448 1.0486L40.8831 0.775554L39.9213 0.546168L38.9368 0.349451L37.9297 0.196557L36.9114 0.0872827L35.893 0.0218093L34.8519 0L33.6639 0.0327367L32.4983 0.120156L31.3441 0.262123L30.2126 0.458749L29.1037 0.699062L28.0062 1.00492L26.9312 1.35452L25.8901 1.75868L24.8717 2.20658L23.8759 2.69813L22.9029 3.23337L21.9751 3.81234L21.0697 4.43494L20.1984 5.10133L19.3611 5.80046L18.5577 6.54321L17.7883 7.31873L17.064 8.1271L16.3852 8.96829L15.7402 9.84211L15.1405 10.7489L14.5747 11.6882L14.0656 12.6495L13.6129 13.6327L13.1942 14.6486L12.8321 15.6863L12.5152 16.746L12.2664 17.8275L12.0628 18.9307L11.9155 20.0448L11.8251 21.181L11.791 22.328L11.8251 23.4749L11.9155 24.6L12.0628 25.7143L12.2664 26.8067L12.5152 27.8771L12.8321 28.9367L13.1942 29.9744L13.6129 30.9795L14.0656 31.9625L14.5747 32.9238L15.1405 33.8632L15.7402 34.77L16.3852 35.6438L17.064 36.4849L17.7883 37.2932L18.5577 38.0689L19.3611 38.8008L20.1984 39.5107L21.0697 40.1662L21.9751 40.7888L22.9029 41.3787L23.8759 41.914L24.8717 42.4056L25.8901 42.8534L26.9312 43.2576L28.0062 43.6072L29.1037 43.9022L30.2126 44.1533L31.3441 44.35L32.4983 44.492L33.6639 44.5793L34.8519 44.6122L35.9043 44.5903L36.9566 44.5247L37.9863 44.4046L38.9934 44.2516L40.0005 44.0551L40.9849 43.8147L41.9468 43.5307L42.8973 43.2139L43.8364 42.8534L44.7416 42.4602L45.6243 42.0232L46.4956 41.5644L47.3329 41.0619L48.1589 40.5266L48.9509 39.9587L49.7205 39.3579L50.4559 38.7243L51.1689 38.0689L51.8477 37.3807L52.5041 36.6597L53.1263 35.9278L53.7148 35.1522L54.2693 34.3658L54.7897 33.5465L55.2762 32.7163L55.729 31.8533L56.1363 30.9795L56.5098 30.0838L56.8492 29.1661L57.1434 28.2267L57.3923 27.2763L57.6073 26.3151H46.586Z" fill="#FB0F1D"/>
<path fill-rule="evenodd" clip-rule="evenodd" d="M58.0371 1.56201H68.7189V32.8363H83.4289L75.2819 42.8206H58.0371V1.56201Z" fill="#FB0F1D"/>
</g>
<defs>
<clipPath id="clip0_145_233">
<rect width="83.4286" height="64" fill="white"/>
</clipPath>
</defs>
</svg>
