<svg width="97" height="24" viewBox="0 0 97 24" fill="none" xmlns="http://www.w3.org/2000/svg">

    <path fill-rule="evenodd" clip-rule="evenodd"
        d="M52.151 5.81194C52.3843 6.05351 54.484 11.8084 54.7036 12.5189C54.9223 13.2801 55.2311 14.0103 55.6231 14.6929C56.3505 14.8635 56.4191 14.1103 56.6387 13.5135C57.8327 10.288 59.6442 5.58459 60.55 2.41585C61.1813 0.881214 61.2362 0.469136 60.0971 0.469136C58.958 0.469136 59.0815 1.23645 58.6286 2.23113C58.2307 4.121 56.6936 8.1139 56.1309 9.94693C56.1309 10.1885 56.1309 10.1885 55.8427 10.1885C54.8958 7.46026 53.7979 4.121 52.7274 1.42118C52.4392 0.895424 51.9314 0.781747 51.5883 1.96114C51.0119 3.83681 50.2159 6.06772 49.5984 7.88654C49.5984 7.88654 48.8573 10.1885 48.8024 10.3022C48.4099 9.64879 48.1225 8.93374 47.9515 8.18494C47.1006 6.01088 46.3595 3.66629 45.6322 1.49223C45.4538 1.08015 45.4538 0.838585 45.0558 0.597022C44.6569 0.44396 44.2255 0.404699 43.8069 0.483345C42.6816 0.66807 43.4089 1.6059 43.6422 2.30217C45.0146 6.12455 46.538 10.7143 48.0613 14.3519C48.097 14.442 48.1549 14.5209 48.2294 14.5804C48.3038 14.64 48.3921 14.6781 48.4853 14.6911C48.5786 14.7041 48.6735 14.6914 48.7604 14.6543C48.8474 14.6172 48.9234 14.557 48.9808 14.4798C49.2004 14.0393 51.9863 5.81194 52.151 5.81194Z"
        fill="white" />
    <path fill-rule="evenodd" clip-rule="evenodd"
        d="M0.220257 0.71036C0.163528 0.947073 0.182798 1.19648 0.275153 1.42084C0.508458 2.41551 -0.177734 13.7548 0.000676109 14.2095C0.556182 14.4681 1.179 14.5281 1.77105 14.38C2.04553 14.0816 1.93574 13.7974 1.93574 13.3285C1.93574 11.3249 2.10042 9.39242 2.10042 7.33203C2.16904 6.56471 2.22394 6.03896 2.22394 5.57004C2.22394 5.10112 2.22394 5.15796 2.33373 5.04429C2.44352 4.93061 4.24134 8.1704 4.41975 8.52564C4.76284 9.22191 5.43531 10.2876 5.8882 11.1118C6.57439 12.4049 6.91748 11.5239 7.08217 11.2255C7.48016 10.6997 10.5543 5.11533 10.7739 5.00166C10.9797 5.22901 10.9797 10.8134 10.9797 11.2255C10.9797 14.2805 10.6366 14.5789 12.5031 14.451C13.0795 14.451 13.1344 13.9821 13.0795 13.4564C13.0795 12.4617 13.0795 11.3391 13.0795 10.3445C12.9285 7.81516 12.8187 4.93061 12.8187 2.41551C12.8187 2.11711 12.9285 0.994552 12.9285 0.824037C12.7605 0.628007 12.5329 0.497218 12.2834 0.453293C12.0338 0.409369 11.7773 0.454941 11.5561 0.582474C11.1581 0.824037 11.0484 1.34979 10.7602 1.70503C9.60736 3.82226 8.05656 6.22368 6.97238 8.22723C6.57439 8.93771 6.57439 8.69615 6.23129 8.22723C5.49021 7.10468 4.52954 5.17217 3.85707 4.04961L2.48469 1.70503C2.29393 1.29759 2.0491 0.919747 1.75733 0.582474C1.37306 0.298282 0.618248 0.525635 0.220257 0.71036Z"
        fill="white" />
    <path fill-rule="evenodd" clip-rule="evenodd"
        d="M72.6389 7.28981C73.1246 6.87945 73.7008 6.59984 74.3162 6.47588C74.9316 6.35192 75.567 6.38746 76.1659 6.57933C77.9775 7.40349 78.2108 10.1744 77.4148 11.5243C77.0758 12.0504 76.5874 12.4546 76.0171 12.6811C75.4468 12.9076 74.8227 12.9453 74.2309 12.7889C73.6575 12.6718 73.1148 12.4296 72.6389 12.0784V7.28981ZM72.6389 5.28626C72.5533 3.73868 72.5533 2.1873 72.6389 0.639725C72.6389 0.000293857 72.4193 -0.113383 71.8429 0.113971C70.4705 0.710773 70.4705 0.46921 70.6627 1.76228C70.7724 2.41592 70.6627 9.98964 70.6627 11.0554C70.6627 13.1584 70.3744 13.6415 73.3251 14.5225C74.1652 14.7049 75.0324 14.7096 75.8743 14.5363C76.7163 14.3629 77.5157 14.015 78.2245 13.5136C81.1202 11.0554 80.3242 4.12108 75.0406 4.64683C74.58 4.67264 74.1216 4.7296 73.6682 4.81735C73.4898 4.87418 72.8173 5.28626 72.735 5.28626H72.6389Z"
        fill="white" />
    <path fill-rule="evenodd" clip-rule="evenodd"
        d="M32.6207 14.3374C32.8354 13.5964 32.8962 12.8167 32.7991 12.0496C32.7429 11.2455 32.7429 10.4382 32.7991 9.63401C32.9638 9.63401 33.1422 9.93241 33.4853 10.2876C33.8284 10.6429 36.6555 13.6979 37.1084 14.039C37.2664 14.1912 37.4569 14.3028 37.6644 14.3645C37.8718 14.4262 38.0904 14.4364 38.3024 14.3942C38.7004 14.3942 39.3317 14.3942 39.5513 14.11C39.5513 13.6979 38.7553 13.0443 38.4122 12.6891C38.0691 12.3338 37.6299 11.8791 37.2319 11.396C36.359 10.6006 35.5426 9.74104 34.7891 8.82406C34.7891 8.69617 37.9044 5.98214 38.4808 5.47059C38.7004 5.22903 38.9337 5.17219 38.8788 4.81695C38.1724 4.59134 37.4168 4.59134 36.7104 4.81695C36.436 4.94484 34.5558 6.70683 34.048 7.17575C33.8833 7.34626 32.9089 8.41198 32.7991 8.35514C32.6344 7.81518 32.7991 0.468818 32.6893 0.0567395C32.5796 -0.355339 30.6445 0.298303 30.6994 1.00878C30.807 1.50798 30.8622 2.01774 30.8641 2.52921V12.6891C30.8641 13.0443 30.7543 14.11 30.9876 14.2805C31.5216 14.4218 32.0788 14.4412 32.6207 14.3374Z"
        fill="white" />
    <path fill-rule="evenodd" clip-rule="evenodd"
        d="M17.8382 9.52038C18.4695 9.34987 20.583 9.87562 20.6791 10.4582C20.7339 11.0869 20.7339 11.7194 20.6791 12.3481C20.2811 12.8738 17.55 13.9254 16.6443 12.0497C16.5222 11.7832 16.4589 11.492 16.4589 11.1971C16.4589 10.9022 16.5222 10.611 16.6443 10.3445C16.776 10.1279 16.9505 9.9425 17.1563 9.80048C17.362 9.65845 17.5944 9.56301 17.8382 9.52038ZM20.734 8.80991C20.2007 8.44412 19.6042 8.1884 18.9773 8.0568C18.1961 7.96723 17.4056 8.025 16.6443 8.22731C16.0032 8.41741 15.438 8.81547 15.0317 9.36296C14.6254 9.91044 14.3995 10.5785 14.3872 11.2688C14.375 11.9591 14.5769 12.6353 14.9634 13.1979C15.35 13.7605 15.9006 14.1798 16.5345 14.3943C17.62 14.7775 18.7976 14.7775 19.8831 14.3943C20.1164 14.2806 20.5693 13.9822 20.734 13.9254C20.8986 13.8685 20.9673 14.3374 21.1868 14.4511C21.4064 14.5648 22.4357 14.4511 22.7239 14.1669C23.0121 13.8827 23.067 13.9254 22.8886 13.5133C22.6231 12.9696 22.5272 12.3539 22.6141 11.7513V7.51683C22.6859 6.91726 22.5445 6.31113 22.2161 5.81168C21.132 3.58077 14.5994 4.46177 15.1209 6.35165C15.6424 8.24152 16.4933 5.698 19.3753 6.05324C20.9261 6.22376 20.7614 7.75839 20.7614 8.80991H20.734Z"
        fill="white" />
    <path fill-rule="evenodd" clip-rule="evenodd"
        d="M87.9126 8.52588H83.2053C83.2684 7.94243 83.5256 7.39988 83.9327 6.99124C84.3771 6.58773 84.9354 6.34353 85.5246 6.29497C85.8316 6.26872 86.1404 6.30678 86.4328 6.40688C86.7252 6.50698 86.9951 6.66706 87.2264 6.87757C87.4592 7.07592 87.643 7.32896 87.7623 7.61566C87.8817 7.90236 87.9332 8.21441 87.9126 8.52588ZM83.0818 10.0463C83.4249 9.87579 88.5713 10.0463 89.5046 10.0463C90.4378 10.0463 90.0123 6.87757 88.3106 5.58449C87.6154 5.04783 86.7877 4.7257 85.9232 4.65529C85.0587 4.58488 84.1926 4.76906 83.4248 5.18656C82.6571 5.60407 82.0191 6.23788 81.5844 7.01482C81.1498 7.79175 80.9362 8.68013 80.9683 9.57739C80.9358 10.4488 81.1316 11.3132 81.5351 12.0787C81.9386 12.8443 82.5347 13.4824 83.2602 13.9255C84.7836 14.9912 88.8733 14.9344 89.381 13.2861C90.0123 11.1689 88.5302 12.3483 88.0087 12.5756C87.5701 12.7618 87.1079 12.8814 86.6363 12.9309C83.6033 13.2861 82.8622 10.5152 83.0818 10.0463Z"
        fill="white" />
    <path fill-rule="evenodd" clip-rule="evenodd"
        d="M62.4847 8.52538C62.5329 7.91848 62.7994 7.35241 63.2314 6.93926C63.6635 6.52611 64.2296 6.296 64.8178 6.29448C65.998 6.16659 67.3704 7.23231 67.1371 8.52538H62.4847ZM62.2514 9.94634C62.5396 9.94634 67.8782 9.94634 68.6193 9.94634C69.3604 9.94634 69.2369 9.47743 69.182 8.89483C69.1419 8.10585 68.9045 7.34118 68.4932 6.67573C68.0818 6.01027 67.5106 5.46685 66.8355 5.0987C66.1603 4.73055 65.4044 4.55029 64.6417 4.57558C63.879 4.60087 63.1358 4.83084 62.4847 5.24297C61.7527 5.69075 61.154 6.33881 60.7546 7.11592C60.3551 7.89304 60.1702 8.76913 60.2203 9.64794C60.1621 10.5155 60.3507 11.3816 60.7629 12.1393C61.1752 12.8969 61.7929 13.5128 62.5396 13.9108C64.4747 15.1471 68.2762 14.6213 68.6193 13.2146C68.6193 12.8025 68.8938 11.7936 68.2762 12.0352C67.5302 12.4718 66.7181 12.7745 65.8745 12.9304C65.4248 12.9926 64.9676 12.9618 64.5295 12.8399C64.0913 12.7179 63.6809 12.5072 63.3219 12.2199C62.8278 11.8078 62.0318 10.5716 62.2514 9.94634Z"
        fill="white" />
    <path fill-rule="evenodd" clip-rule="evenodd"
        d="M93.075 14.3938C93.4181 14.0385 93.3632 13.868 93.3632 13.3423V11.9213C93.3632 10.0456 93.0201 6.93374 95.1199 6.46482C95.5728 6.35115 95.6826 6.74902 96.259 6.63534C96.5989 6.31958 96.8542 5.9182 97 5.47015C97 4.57495 95.6277 4.40443 94.3788 4.98703C93.9808 5.17175 93.6514 5.81118 93.3632 5.86802C93.3632 5.34227 93.473 5.11491 93.1299 4.646C92.69 4.68967 92.2642 4.83017 91.881 5.05807C91.3184 5.34227 91.2086 5.34227 91.3184 6.05275C91.4282 6.76323 91.3184 11.6371 91.3184 12.8023C91.3733 14.5785 91.3733 14.5217 93.075 14.3938Z"
        fill="white" />
    <path fill-rule="evenodd" clip-rule="evenodd"
        d="M26.1586 14.3374V14.2237C26.3179 12.7805 26.3592 11.326 26.2821 9.87558C26.2821 8.75303 26.5565 6.9342 27.7505 6.57896C28.7112 6.22372 28.7661 7.16155 29.3974 6.57896C30.8658 4.98749 28.8896 4.34805 27.6956 4.87381C26.5017 5.39956 26.6663 5.81164 26.3232 5.92532C26.2957 5.69411 26.2957 5.46026 26.3232 5.22905C26.3232 4.93065 26.1997 4.93065 26.0899 4.76013C25.6499 4.75642 25.2175 4.87941 24.8411 5.11537C24.2784 5.34273 24.1 5.39956 24.2784 6.11004C24.3991 7.19943 24.4358 8.29704 24.3882 9.39246V12.6322C24.5117 14.3942 24.2784 14.5221 26.1586 14.3374Z"
        fill="white" />
    <path fill-rule="evenodd" clip-rule="evenodd"
        d="M51.7516 16.227C49.4861 16.5164 47.2584 17.0644 45.1093 17.8611C44.4368 18.1595 43.7369 18.33 43.0645 18.6284C41.6921 19.1542 40.402 19.6231 39.0434 20.1631C38.5905 20.3336 35.3517 21.3282 34.789 21.4561C32.0442 22.1524 27.9271 22.9766 25.3058 21.7403C24.057 21.1009 23.9334 23.0902 26.7743 23.8007C28.4356 24.102 30.1404 24.0244 31.7697 23.5734C33.1421 23.275 34.789 22.7492 36.0928 22.3371C37.3965 21.9251 38.9336 21.4561 40.3471 21.0441C40.6902 20.9162 40.9647 20.8025 41.3627 20.6888L43.4625 20.0352C43.8604 19.9215 44.1486 19.751 44.4917 19.6231L46.6601 19.0973C47.0581 18.9837 47.3463 18.87 47.6894 18.7421C50.5627 18.1074 53.4935 17.793 56.4315 17.8043C57.1588 17.8043 58.243 17.989 58.9841 18.1027C60.3565 18.2732 60.0546 17.5201 59.1488 17.037C56.7937 16.1026 54.2434 15.8234 51.7516 16.227Z"
        fill="#FB0F1D" />

</svg>