<svg width="200" height="200" viewBox="0 0 200 200" fill="none" xmlns="http://www.w3.org/2000/svg">
    <path
        d="M50 15.625C51.7259 15.625 53.125 17.0241 53.125 18.75V28.125C53.125 29.8509 51.7259 31.25 50 31.25C48.2741 31.25 46.875 29.8509 46.875 28.125V18.75C46.875 17.0241 48.2741 15.625 50 15.625Z"
        fill="#F8F8F8" />
    <path
        d="M150 15.625C151.726 15.625 153.125 17.0241 153.125 18.75V28.125C153.125 29.8509 151.726 31.25 150 31.25C148.274 31.25 146.875 29.8509 146.875 28.125V18.75C146.875 17.0241 148.274 15.625 150 15.625Z"
        fill="#F8F8F8" />
    <path
        d="M40.625 75C40.625 73.2741 42.0241 71.875 43.75 71.875H156.25C157.976 71.875 159.375 73.2741 159.375 75C159.375 76.7259 157.976 78.125 156.25 78.125H43.75C42.0241 78.125 40.625 76.7259 40.625 75Z"
        fill="#F8F8F8" />
    <path fill-rule="evenodd" clip-rule="evenodd"
        d="M40.625 103.125C40.625 99.6732 43.4232 96.875 46.875 96.875H59.375C62.8268 96.875 65.625 99.6732 65.625 103.125V115.625C65.625 119.077 62.8268 121.875 59.375 121.875H46.875C43.4232 121.875 40.625 119.077 40.625 115.625V103.125ZM46.875 103.125V115.625H59.375V103.125H46.875Z"
        fill="#F8F8F8" />
    <path fill-rule="evenodd" clip-rule="evenodd"
        d="M46.875 134.375C43.4232 134.375 40.625 137.173 40.625 140.625V153.125C40.625 156.577 43.4232 159.375 46.875 159.375H59.375C62.8268 159.375 65.625 156.577 65.625 153.125V140.625C65.625 137.173 62.8268 134.375 59.375 134.375H46.875ZM46.875 153.125V140.625H59.375V153.125H46.875Z"
        fill="#F8F8F8" />
    <path fill-rule="evenodd" clip-rule="evenodd"
        d="M87.5 103.125C87.5 99.6732 90.2982 96.875 93.75 96.875H106.25C109.702 96.875 112.5 99.6732 112.5 103.125V115.625C112.5 119.077 109.702 121.875 106.25 121.875H93.75C90.2982 121.875 87.5 119.077 87.5 115.625V103.125ZM106.25 103.125H93.75V115.625H106.25V103.125Z"
        fill="#F8F8F8" />
    <path fill-rule="evenodd" clip-rule="evenodd"
        d="M93.75 134.375C90.2982 134.375 87.5 137.173 87.5 140.625V153.125C87.5 156.577 90.2982 159.375 93.75 159.375H106.25C109.702 159.375 112.5 156.577 112.5 153.125V140.625C112.5 137.173 109.702 134.375 106.25 134.375H93.75ZM93.75 140.625H106.25V153.125H93.75V140.625Z"
        fill="#F8F8F8" />
    <path fill-rule="evenodd" clip-rule="evenodd"
        d="M134.375 103.125C134.375 99.6732 137.173 96.875 140.625 96.875H153.125C156.577 96.875 159.375 99.6732 159.375 103.125V115.625C159.375 119.077 156.577 121.875 153.125 121.875H140.625C137.173 121.875 134.375 119.077 134.375 115.625V103.125ZM140.625 103.125V115.625H153.125V103.125H140.625Z"
        fill="#F8F8F8" />
    <path fill-rule="evenodd" clip-rule="evenodd"
        d="M140.625 134.375C137.173 134.375 134.375 137.173 134.375 140.625V153.125C134.375 156.577 137.173 159.375 140.625 159.375H153.125C156.577 159.375 159.375 156.577 159.375 153.125V140.625C159.375 137.173 156.577 134.375 153.125 134.375H140.625ZM140.625 153.125V140.625H153.125V153.125H140.625Z"
        fill="#F8F8F8" />
    <path fill-rule="evenodd" clip-rule="evenodd"
        d="M15.625 68.1285C15.625 53.5188 27.4387 41.6609 42.0295 41.6609H157.97C172.561 41.6609 184.375 53.5188 184.375 68.1285V157.907C184.375 172.517 172.561 184.375 157.97 184.375H42.0295C27.4387 184.375 15.625 172.517 15.625 157.907V68.1285ZM42.0295 47.9109C30.9064 47.9109 21.875 56.9546 21.875 68.1285V157.907C21.875 169.081 30.9064 178.125 42.0295 178.125H157.97C169.094 178.125 178.125 169.081 178.125 157.907V68.1285C178.125 56.9546 169.094 47.9109 157.97 47.9109H42.0295Z"
        fill="#F8F8F8" />
</svg>