<svg width="200" height="200" viewBox="0 0 200 200" fill="none" xmlns="http://www.w3.org/2000/svg">
    <path fill-rule="evenodd" clip-rule="evenodd"
        d="M38.1241 41.2471C36.749 32.1712 43.7754 24 52.9549 24H147.045C156.224 24 163.25 32.1712 161.875 41.2471L158.731 62H174.815C177.75 62 180.054 64.5159 179.796 67.4395L177.954 88.3184C177.271 96.0616 170.785 102 163.012 102H152.67L150.108 118.912C146.505 142.692 126.74 160.519 103 161.912V176H134C135.657 176 137 177.343 137 179C137 180.657 135.657 182 134 182H65.9997C64.3429 182 62.9997 180.657 62.9997 179C62.9997 177.343 64.3429 176 65.9997 176H96.9997V161.912C73.2595 160.519 53.4946 142.692 49.8916 118.912L47.3291 102H36.9875C29.2142 102 22.7288 96.0616 22.0456 88.3184L20.2033 67.4395C19.9454 64.516 22.2491 62 25.184 62H41.2685L38.1241 41.2471ZM42.1776 68H26.2761L28.0224 87.791C28.4323 92.437 32.3236 96 36.9875 96H46.42L42.1776 68ZM153.579 96H163.012C167.676 96 171.567 92.437 171.977 87.791L173.723 68H157.822L153.579 96ZM52.9549 30C47.4472 30 43.2314 34.9027 44.0564 40.3483L55.8239 118.013C59.1333 139.855 77.9084 156 99.9997 156C122.091 156 140.866 139.855 144.176 118.013L155.943 40.3482C156.768 34.9027 152.552 30 147.045 30H52.9549ZM88.9997 67C88.9997 65.3431 90.3429 64 91.9997 64H108C109.657 64 111 65.3431 111 67C111 68.6569 109.657 70 108 70H103V106H108C109.657 106 111 107.343 111 109C111 110.657 109.657 112 108 112H91.9997C90.3429 112 88.9997 110.657 88.9997 109C88.9997 107.343 90.3429 106 91.9997 106H96.9997V70H91.9997C90.3429 70 88.9997 68.6569 88.9997 67Z"
        fill="#F8F8F8" />
</svg>