<svg width="200" height="200" viewBox="0 0 200 200" fill="none" xmlns="http://www.w3.org/2000/svg">
    <path fill-rule="evenodd" clip-rule="evenodd"
        d="M72.2426 43.3494C72.2426 28.0408 84.6669 15.625 100 15.625C115.333 15.625 127.757 28.0408 127.757 43.3494C127.757 58.658 115.333 71.0737 100 71.0737C84.6669 71.0737 72.2426 58.658 72.2426 43.3494ZM100 9.375C81.2214 9.375 65.9926 24.5827 65.9926 43.3494C65.9926 62.116 81.2214 77.3237 100 77.3237C118.779 77.3237 134.007 62.116 134.007 43.3494C134.007 24.5827 118.779 9.375 100 9.375ZM9.375 140.304C9.375 130.058 18.3284 119.825 35.0382 111.97C51.5019 104.231 74.4659 99.359 100 99.359C125.534 99.359 148.498 104.231 164.962 111.97C181.672 119.825 190.625 130.058 190.625 140.304C190.625 150.551 181.672 160.784 164.962 168.639C148.498 176.378 125.534 181.25 100 181.25C74.4659 181.25 51.5019 176.378 35.0382 168.639C18.3284 160.784 9.375 150.551 9.375 140.304ZM100 93.109C73.7574 93.109 49.8465 98.1028 32.3793 106.314C15.1583 114.409 3.125 126.212 3.125 140.304C3.125 154.397 15.1583 166.2 32.3793 174.295C49.8465 182.506 73.7574 187.5 100 187.5C126.243 187.5 150.154 182.506 167.621 174.295C184.842 166.2 196.875 154.397 196.875 140.304C196.875 126.212 184.842 114.409 167.621 106.314C150.154 98.1028 126.243 93.109 100 93.109ZM101.733 113.656C100.684 112.956 99.3161 112.956 98.2664 113.656L83.6292 123.414C82.2823 124.312 81.8441 126.09 82.6192 127.511L97.2565 154.346C98.4409 156.517 101.559 156.517 102.743 154.346L117.381 127.511C118.156 126.09 117.717 124.312 116.371 123.414L101.733 113.656Z"
        fill="#F8F8F8" />
</svg>