<svg width="200" height="200" viewBox="0 0 200 200" fill="none" xmlns="http://www.w3.org/2000/svg">
    <path fill-rule="evenodd" clip-rule="evenodd"
        d="M28.125 86.552C28.125 47.4174 60.2669 15.625 100 15.625C139.733 15.625 171.875 47.4174 171.875 86.552C171.875 106.046 160.163 126.326 145.621 143.877C131.168 161.32 114.373 175.531 105.119 182.825C102.084 185.216 97.9156 185.216 94.8813 182.825C85.6273 175.531 68.8322 161.32 54.3791 143.877C39.8365 126.326 28.125 106.046 28.125 86.552ZM100 9.375C56.8904 9.375 21.875 43.8909 21.875 86.552C21.875 108.32 34.8027 130.047 49.5665 147.865C64.4197 165.791 81.598 180.313 91.0123 187.733C96.3159 191.914 103.684 191.914 108.988 187.733C118.402 180.313 135.58 165.791 150.434 147.865C165.197 130.047 178.125 108.32 178.125 86.552C178.125 43.8909 143.11 9.375 100 9.375ZM82.0312 84.375C82.0312 74.4511 90.0761 66.4062 100 66.4062C109.924 66.4062 117.969 74.4511 117.969 84.375C117.969 94.2989 109.924 102.344 100 102.344C90.0761 102.344 82.0312 94.2989 82.0312 84.375ZM100 58.5938C85.7614 58.5938 74.2188 70.1364 74.2188 84.375C74.2188 98.6136 85.7614 110.156 100 110.156C114.239 110.156 125.781 98.6136 125.781 84.375C125.781 70.1364 114.239 58.5938 100 58.5938Z"
        fill="#F8F8F8" />
</svg>