<svg width="200" height="200" viewBox="0 0 200 200" fill="none" xmlns="http://www.w3.org/2000/svg">
    <path
        d="M87.4754 76.6194C87.4861 74.2263 90.0728 72.7328 92.1507 73.9201L118.444 88.944C120.889 90.3409 120.384 94.0049 117.652 94.6887L106.404 97.5047L110.909 105.308C111.772 106.803 111.26 108.714 109.765 109.577C108.271 110.44 106.359 109.928 105.497 108.433L100.955 100.568L92.7107 109.089C90.7527 111.112 87.3272 109.718 87.3398 106.902L87.4754 76.6194Z"
        fill="#F8F8F8" />
    <path fill-rule="evenodd" clip-rule="evenodd"
        d="M33.9286 28.125C20.3328 28.125 9.375 39.269 9.375 52.9367V130.497C9.375 144.165 20.3328 155.309 33.9286 155.309H95.9821V178.125H58.0357C56.3098 178.125 54.9107 179.524 54.9107 181.25C54.9107 182.976 56.3098 184.375 58.0357 184.375H140.179C141.904 184.375 143.304 182.976 143.304 181.25C143.304 179.524 141.904 178.125 140.179 178.125H102.232V155.309H166.071C179.667 155.309 190.625 144.165 190.625 130.497V52.9367C190.625 39.269 179.667 28.125 166.071 28.125H33.9286ZM184.375 130.497C184.375 140.784 176.145 149.059 166.071 149.059H33.9286C23.855 149.059 15.625 140.784 15.625 130.497V52.9367C15.625 42.65 23.855 34.375 33.9286 34.375H166.071C176.145 34.375 184.375 42.65 184.375 52.9367V130.497Z"
        fill="#F8F8F8" />
</svg>