<svg width="200" height="200" viewBox="0 0 200 200" fill="none" xmlns="http://www.w3.org/2000/svg">
    <path
        d="M78.1246 15.625C78.1246 13.8991 79.5237 12.5 81.2496 12.5H118.75C120.475 12.5 121.875 13.8991 121.875 15.625C121.875 17.3509 120.475 18.75 118.75 18.75H81.2496C79.5237 18.75 78.1246 17.3509 78.1246 15.625Z"
        fill="#F8F8F8" />
    <path
        d="M99.9996 118.75C105.177 118.75 109.375 114.553 109.375 109.375C109.375 104.197 105.177 100 99.9996 100C94.8219 100 90.6246 104.197 90.6246 109.375C90.6246 114.553 94.8219 118.75 99.9996 118.75Z"
        fill="#F8F8F8" />
    <path fill-rule="evenodd" clip-rule="evenodd"
        d="M15.6238 56.25C15.6238 40.717 28.2158 28.125 43.7488 28.125H156.249C171.782 28.125 184.374 40.717 184.374 56.25V74.9284C184.375 74.9752 184.375 75.0219 184.374 75.0685V143.75C184.374 159.283 171.782 171.875 156.249 171.875H43.7488C28.2158 171.875 15.6238 159.283 15.6238 143.75V75.0686C15.6228 75.0219 15.6228 74.9751 15.6238 74.9282V56.25ZM21.8738 79.5969V143.75C21.8738 155.831 31.6676 165.625 43.7488 165.625H156.249C168.33 165.625 178.124 155.831 178.124 143.75V79.5969C177.477 79.8393 176.762 80.1022 175.982 80.3824C171.834 81.8728 165.841 83.8533 158.421 85.832C143.593 89.7863 123.001 93.75 99.9988 93.75C76.9969 93.75 56.405 89.7863 41.5765 85.832C34.1564 83.8533 28.1639 81.8728 24.0155 80.3824C23.2357 80.1022 22.5209 79.8393 21.8738 79.5969ZM178.124 72.9015C177.098 73.3069 175.667 73.8545 173.869 74.5005C169.863 75.9397 164.039 77.8654 156.811 79.793C142.343 83.6512 122.309 87.5 99.9988 87.5C77.6883 87.5 57.6552 83.6512 43.1868 79.793C35.9585 77.8654 30.1346 75.9397 26.1287 74.5005C24.3308 73.8545 22.9 73.3069 21.8738 72.9015V56.25C21.8738 44.1688 31.6676 34.375 43.7488 34.375H156.249C168.33 34.375 178.124 44.1688 178.124 56.25V72.9015Z"
        fill="#F8F8F8" />
</svg>