<svg width="200" height="200" viewBox="0 0 200 200" fill="none" xmlns="http://www.w3.org/2000/svg">
    <path fill-rule="evenodd" clip-rule="evenodd"
        d="M100 21.875C56.8528 21.875 21.875 56.8528 21.875 100C21.875 143.147 56.8528 178.125 100 178.125C143.147 178.125 178.125 143.147 178.125 100C178.125 56.8528 143.147 21.875 100 21.875ZM15.625 100C15.625 53.401 53.401 15.625 100 15.625C146.599 15.625 184.375 53.401 184.375 100C184.375 146.599 146.599 184.375 100 184.375C53.401 184.375 15.625 146.599 15.625 100ZM59.6728 119.178C61.1983 117.652 63.6716 117.652 65.1971 119.178C84.4182 138.399 115.582 138.399 134.803 119.178C136.328 117.652 138.802 117.652 140.327 119.178C141.853 120.703 141.853 123.176 140.327 124.702C118.055 146.974 81.9449 146.974 59.6728 124.702C58.1474 123.176 58.1474 120.703 59.6728 119.178ZM68.75 81.25C68.75 77.7982 71.5482 75 75 75C78.4518 75 81.25 77.7982 81.25 81.25C81.25 82.9759 82.6491 84.375 84.375 84.375C86.1009 84.375 87.5 82.9759 87.5 81.25C87.5 74.3464 81.9036 68.75 75 68.75C68.0964 68.75 62.5 74.3464 62.5 81.25C62.5 82.9759 63.8991 84.375 65.625 84.375C67.3509 84.375 68.75 82.9759 68.75 81.25ZM118.75 81.25C118.75 77.7982 121.548 75 125 75C128.452 75 131.25 77.7982 131.25 81.25C131.25 82.9759 132.649 84.375 134.375 84.375C136.101 84.375 137.5 82.9759 137.5 81.25C137.5 74.3464 131.904 68.75 125 68.75C118.096 68.75 112.5 74.3464 112.5 81.25C112.5 82.9759 113.899 84.375 115.625 84.375C117.351 84.375 118.75 82.9759 118.75 81.25Z"
        fill="#F8F8F8" />
</svg>