<svg width="200" height="200" viewBox="0 0 200 200" fill="none" xmlns="http://www.w3.org/2000/svg">
    <path fill-rule="evenodd" clip-rule="evenodd"
        d="M164 17C155.163 17 148 24.1634 148 33V167C148 175.837 155.163 183 164 183C172.837 183 180 175.837 180 167V33C180 24.1634 172.837 17 164 17ZM154 33C154 27.4772 158.477 23 164 23C169.523 23 174 27.4772 174 33V167C174 172.523 169.523 177 164 177C158.477 177 154 172.523 154 167V33ZM87 73C87 64.1634 94.1634 57 103 57C111.837 57 119 64.1634 119 73V167C119 175.837 111.837 183 103 183C94.1634 183 87 175.837 87 167V73ZM103 63C97.4771 63 93 67.4772 93 73V167C93 172.523 97.4771 177 103 177C108.523 177 113 172.523 113 167V73C113 67.4772 108.523 63 103 63ZM26 113C26 104.163 33.1634 97 42 97C50.8366 97 58 104.163 58 113V167C58 175.837 50.8366 183 42 183C33.1634 183 26 175.837 26 167V113ZM42 103C36.4772 103 32 107.477 32 113V167C32 172.523 36.4772 177 42 177C47.5228 177 52 172.523 52 167V113C52 107.477 47.5228 103 42 103Z"
        fill="#F8F8F8" />
</svg>