<svg width="200" height="200" viewBox="0 0 200 200" fill="none" xmlns="http://www.w3.org/2000/svg">

    <path fill-rule="evenodd" clip-rule="evenodd"
        d="M111 21.7021L221.223 72.0271L111 122.352L11 76.6947V119.054C11 120.711 9.65685 122.054 8 122.054C6.34315 122.054 5 120.711 5 119.054V70.0989L111 21.7021ZM15.2232 72.0271L111 115.756L206.777 72.0271L111 28.2979L15.2232 72.0271Z"
        fill="#F8F8F8" />
    <path fill-rule="evenodd" clip-rule="evenodd"
        d="M39 84C40.6569 84 42 85.3431 42 87V137.739C42 142.54 44.177 147.121 48.2424 151.413C52.3242 155.722 58.1782 159.587 65.1085 162.826C78.9775 169.308 96.5424 173 111 173C125.458 173 143.022 169.308 156.891 162.826C163.822 159.587 169.676 155.722 173.758 151.413C177.823 147.121 180 142.54 180 137.739V87C180 85.3431 181.343 84 183 84C184.657 84 186 85.3431 186 87V137.739C186 144.504 182.898 150.488 178.114 155.539C173.346 160.572 166.781 164.827 159.432 168.261C144.742 175.127 126.307 179 111 179C95.6931 179 77.258 175.127 62.5681 168.261C55.219 164.827 48.6539 160.572 43.8863 155.539C39.1024 150.488 36 144.504 36 137.739V87C36 85.3431 37.3431 84 39 84Z"
        fill="#F8F8F8" />

</svg>