<svg width="56" height="56" viewBox="0 0 56 56" fill="none" xmlns="http://www.w3.org/2000/svg">

    <path
        d="M28 2L33.3834 7.90874L41 5.48334L42.7078 13.2922L50.5167 15L48.0913 22.6166L54 28L48.0913 33.3834L50.5167 41L42.7078 42.7078L41 50.5167L33.3834 48.0913L28 54L22.6166 48.0913L15 50.5167L13.2922 42.7078L5.48334 41L7.90874 33.3834L2 28L7.90874 22.6166L5.48334 15L13.2922 13.2922L15 5.48334L22.6166 7.90874L28 2Z"
        stroke="black" stroke-width="2" />
    <path
        d="M27.5271 20.3773C27.6817 19.9271 28.3183 19.9271 28.4729 20.3773L30.2448 25.5378C30.3141 25.7397 30.5041 25.8754 30.7177 25.8754H36.3902C36.8812 25.8754 37.0781 26.5092 36.6735 26.7874L32.1326 29.9094C31.9476 30.0366 31.8701 30.2715 31.943 30.4838L33.6885 35.5676C33.845 36.0234 33.3295 36.415 32.9323 36.1419L28.2833 32.9455C28.1126 32.8282 27.8874 32.8282 27.7167 32.9455L23.0677 36.1419C22.6705 36.415 22.155 36.0234 22.3115 35.5676L24.057 30.4838C24.1299 30.2715 24.0524 30.0366 23.8674 29.9094L19.3265 26.7874C18.9219 26.5092 19.1188 25.8754 19.6098 25.8754H25.2823C25.4959 25.8754 25.6859 25.7397 25.7552 25.5378L27.5271 20.3773Z"
        fill="#FB0F1D" />


</svg>