<svg width="57" height="56" viewBox="0 0 57 56" fill="none" xmlns="http://www.w3.org/2000/svg">
    <path
        d="M24.7039 4.3687C24.8017 3.58677 25.4663 3 26.2543 3H29.7457C30.5337 3 31.1983 3.58677 31.2961 4.3687L32.1651 11.3206C33.8357 11.7365 35.4098 12.3967 36.847 13.2613L42.3778 8.95953C42.9998 8.47574 43.8847 8.53083 44.4419 9.08804L46.9106 11.5568C47.4678 12.114 47.5229 12.9989 47.0391 13.6209L42.7377 19.1513C43.6027 20.589 44.2634 22.1636 44.6794 23.8349L51.6313 24.7039C52.4132 24.8017 53 25.4663 53 26.2543V29.7457C53 30.5337 52.4132 31.1983 51.6313 31.2961L44.6794 32.1651C44.2633 33.8367 43.6025 35.4116 42.7372 36.8495L47.0382 42.3793C47.522 43.0013 47.4669 43.8862 46.9097 44.4434L44.4409 46.9121C43.8837 47.4693 42.9988 47.5244 42.3768 47.0407L36.8463 42.7391C35.4093 43.6035 33.8355 44.2636 32.1651 44.6794L31.2961 51.6313C31.1983 52.4132 30.5337 53 29.7457 53H26.2543C25.4663 53 24.8017 52.4132 24.7039 51.6313L23.8349 44.6794C22.1637 44.2634 20.5892 43.6028 19.1516 42.7378L13.6194 47.0406C12.9974 47.5244 12.1125 47.4693 11.5553 46.9121L9.08655 44.4434C8.52935 43.8862 8.47425 43.0013 8.95804 42.3792L13.2611 36.8467C12.3966 35.4096 11.7364 33.8356 11.3206 32.1651L4.36869 31.2961C3.58677 31.1983 3 30.5337 3 29.7457V26.2543C3 25.4663 3.58677 24.8017 4.3687 24.7039L11.3206 23.8349C11.7364 22.1647 12.3964 20.591 13.2606 19.1541L8.9571 13.6209C8.47331 12.9989 8.5284 12.114 9.08561 11.5568L11.5543 9.08808C12.1115 8.53087 12.9965 8.47578 13.6185 8.95957L19.1509 13.2626C20.5887 12.3974 22.1634 11.7367 23.8349 11.3206L24.7039 4.3687Z"
        stroke="#161616" stroke-width="2" stroke-linecap="round" stroke-linejoin="round" />
    <circle cx="28" cy="28" r="5" fill="#FB0F1D" />
    <path d="M38 28C38 33.5228 33.5228 38 28 38M18 28C18 22.4772 22.4772 18 28 18" stroke="#161616" stroke-width="2"
        stroke-linecap="round" stroke-linejoin="round" />
</svg>